<svg id="svg" version="1.1" xmlns="http://www.w3.org/2000/svg" xmlns:xlink="http://www.w3.org/1999/xlink" width="400" height="73.68421052631578" viewBox="0, 0, 400,73.68421052631578"><g id="svgg"><path id="path0" d="M0.000 25.750 C 0.000 50.896,0.007 51.500,0.315 51.500 C 0.528 51.500,0.718 51.281,0.901 50.824 C 1.080 50.376,1.333 50.081,1.653 49.946 C 1.918 49.835,2.348 49.533,2.609 49.275 C 5.400 46.518,8.380 45.648,10.833 46.875 C 12.136 47.527,14.496 49.686,14.734 50.444 C 14.796 50.642,15.069 51.084,15.340 51.426 C 15.612 51.768,15.940 52.393,16.068 52.815 C 16.197 53.238,16.488 53.997,16.715 54.503 C 18.012 57.391,17.932 65.171,16.576 67.918 C 16.259 68.561,16.000 69.211,16.000 69.364 C 16.000 69.516,15.822 69.853,15.605 70.112 C 14.533 71.392,13.333 73.114,13.333 73.374 C 13.333 73.649,13.859 73.667,22.234 73.667 L 31.135 73.667 31.255 72.796 C 31.508 70.961,31.121 57.984,30.830 58.518 C 30.569 58.997,29.972 65.451,30.007 67.417 C 30.063 70.600,30.084 70.482,29.422 70.759 C 28.561 71.118,28.116 71.056,27.583 70.500 C 27.320 70.225,27.015 70.000,26.906 70.000 C 26.796 70.000,26.398 69.700,26.020 69.333 C 25.642 68.967,25.260 68.667,25.171 68.667 C 25.082 68.667,24.901 68.458,24.768 68.202 C 24.636 67.947,24.339 67.637,24.109 67.513 C 23.878 67.390,23.598 67.071,23.488 66.805 C 23.378 66.538,23.148 66.246,22.977 66.154 C 22.806 66.063,22.469 65.597,22.227 65.119 C 21.986 64.641,21.647 64.069,21.475 63.849 C 21.302 63.628,21.041 63.028,20.894 62.515 C 20.747 62.003,20.452 61.164,20.239 60.651 C 19.265 58.310,19.267 52.003,20.243 49.684 C 20.458 49.170,20.749 48.312,20.889 47.776 C 21.029 47.240,21.328 46.528,21.553 46.192 C 21.779 45.857,22.087 45.198,22.239 44.728 C 22.390 44.257,22.669 43.732,22.858 43.561 C 23.048 43.390,23.381 42.899,23.598 42.470 C 23.816 42.041,24.072 41.642,24.167 41.583 C 24.262 41.525,24.519 41.125,24.738 40.697 C 24.957 40.268,25.368 39.696,25.651 39.427 C 25.935 39.158,26.167 38.858,26.167 38.760 C 26.166 38.663,26.382 38.358,26.646 38.083 C 27.157 37.552,28.573 36.035,29.016 35.544 C 29.163 35.382,29.402 35.137,29.548 35.000 C 29.840 34.726,30.493 34.084,30.955 33.618 C 31.117 33.454,31.430 33.154,31.651 32.952 C 31.871 32.749,32.250 32.385,32.493 32.143 C 32.736 31.900,33.158 31.563,33.432 31.393 C 33.705 31.222,34.076 30.946,34.256 30.778 C 34.436 30.610,34.921 30.252,35.333 29.983 C 35.746 29.714,36.533 29.159,37.083 28.749 C 38.414 27.757,38.732 27.605,39.225 27.729 C 39.883 27.894,40.677 28.663,41.024 29.473 C 41.200 29.882,41.559 30.463,41.822 30.763 C 42.086 31.063,42.354 31.558,42.418 31.863 C 42.481 32.167,42.741 32.754,42.995 33.167 C 43.249 33.579,43.582 34.432,43.735 35.062 C 43.889 35.692,44.155 36.483,44.327 36.820 C 44.499 37.158,44.799 38.311,44.994 39.384 C 45.189 40.457,45.455 41.637,45.585 42.006 C 46.294 44.014,46.556 53.522,45.966 55.833 C 45.309 58.410,44.786 59.989,44.245 61.024 C 43.927 61.633,43.667 62.244,43.667 62.383 C 43.667 62.522,43.404 62.949,43.083 63.333 C 42.762 63.717,42.500 64.097,42.500 64.177 C 42.500 64.761,39.264 67.828,37.851 68.583 C 37.508 68.767,37.016 69.085,36.758 69.292 C 36.499 69.498,35.980 69.755,35.602 69.863 C 34.431 70.197,34.331 70.489,34.608 72.792 L 34.713 73.667 52.837 73.667 L 70.961 73.667 71.075 72.603 C 71.138 72.018,71.147 71.286,71.095 70.978 C 71.044 70.669,70.886 68.879,70.745 67.000 C 70.604 65.121,70.380 62.721,70.248 61.667 C 69.849 58.483,69.674 54.284,69.627 46.777 L 69.583 39.637 70.042 39.271 C 70.294 39.069,70.500 38.821,70.500 38.719 C 70.500 38.560,69.463 37.833,69.236 37.833 C 69.027 37.833,68.816 38.891,68.584 41.101 C 68.444 42.437,68.212 44.254,68.069 45.140 C 67.927 46.025,67.768 48.118,67.716 49.790 C 67.610 53.226,67.575 53.330,66.498 53.381 C 65.784 53.415,65.736 53.388,65.440 52.782 C 65.077 52.039,65.008 52.044,65.124 52.805 C 65.170 53.110,65.330 53.405,65.479 53.459 C 65.859 53.599,65.994 53.842,65.997 54.390 C 65.999 54.674,66.282 55.265,66.703 55.867 L 67.407 56.869 67.612 61.143 C 67.725 63.494,67.869 65.991,67.932 66.692 L 68.046 67.968 67.531 68.234 C 66.840 68.591,66.299 68.569,65.781 68.161 C 65.544 67.975,64.918 67.631,64.390 67.398 C 63.862 67.164,63.181 66.754,62.876 66.487 C 62.571 66.219,62.221 66.000,62.098 66.000 C 61.975 66.000,61.774 65.880,61.652 65.732 C 61.530 65.585,61.015 65.181,60.507 64.833 C 59.785 64.339,57.577 62.383,56.797 61.545 C 55.758 60.430,54.132 58.245,53.676 57.352 C 53.501 57.008,53.243 56.632,53.102 56.515 C 52.961 56.399,52.690 55.885,52.499 55.375 C 52.308 54.864,52.008 54.245,51.832 53.998 C 51.656 53.751,51.354 52.957,51.160 52.233 C 50.966 51.509,50.662 50.517,50.484 50.028 C 49.597 47.588,49.599 38.367,50.488 35.333 C 50.663 34.737,50.931 33.612,51.084 32.833 C 51.238 32.054,51.540 31.004,51.756 30.500 C 51.973 29.996,52.312 29.021,52.511 28.333 C 52.709 27.646,53.006 26.894,53.170 26.663 C 53.334 26.432,53.592 25.819,53.742 25.301 C 53.893 24.783,54.238 24.080,54.508 23.740 C 54.779 23.399,55.000 23.016,55.000 22.887 C 55.000 22.557,55.592 21.436,55.903 21.178 C 56.047 21.059,56.238 20.689,56.328 20.356 C 56.418 20.023,56.793 19.349,57.162 18.858 C 57.531 18.368,57.833 17.875,57.833 17.762 C 57.833 17.650,58.028 17.376,58.266 17.154 C 58.504 16.932,58.814 16.525,58.954 16.250 C 59.261 15.652,60.458 13.980,61.163 13.167 C 61.441 12.846,61.949 12.260,62.292 11.866 C 62.636 11.471,63.179 10.841,63.500 10.465 C 63.821 10.090,64.383 9.463,64.750 9.071 C 65.117 8.680,65.571 8.185,65.761 7.972 C 65.950 7.758,66.227 7.471,66.377 7.333 C 66.527 7.196,66.822 6.912,67.033 6.703 C 67.991 5.752,69.031 4.833,69.148 4.833 C 69.219 4.833,69.377 4.647,69.499 4.419 C 69.620 4.192,69.843 3.966,69.994 3.919 C 70.145 3.871,70.574 3.551,70.947 3.207 C 71.321 2.864,71.823 2.449,72.063 2.284 C 72.368 2.075,72.500 1.836,72.500 1.494 C 72.500 1.183,72.623 0.926,72.833 0.795 C 73.402 0.439,73.259 0.000,72.573 0.000 C 72.239 0.000,72.023 0.069,72.079 0.159 C 72.580 0.970,66.362 1.081,16.750 1.143 C 0.602 1.163,0.812 1.173,0.697 0.371 C 0.663 0.134,0.527 -0.000,0.322 -0.000 C 0.005 -0.000,0.000 0.420,0.000 25.750 M3.033 65.033 C 2.923 65.143,2.833 65.334,2.833 65.458 C 2.833 65.767,0.567 68.000,0.253 68.000 C 0.037 68.000,0.000 68.409,0.000 70.833 L 0.000 73.667 2.417 73.667 C 4.097 73.667,4.833 73.609,4.833 73.479 C 4.833 73.376,4.577 72.645,4.263 71.854 C 3.573 70.114,3.399 68.682,3.664 66.931 C 3.935 65.145,3.682 64.384,3.033 65.033 " stroke="none" fill="#db232a" fill-rule="evenodd"></path><path id="path1" d="M74.323 0.458 C 74.305 1.316,73.634 2.379,72.748 2.955 C 72.291 3.252,71.800 3.637,71.657 3.810 C 71.514 3.984,71.169 4.243,70.890 4.387 C 70.611 4.532,70.255 4.844,70.099 5.082 C 69.943 5.320,69.631 5.585,69.406 5.671 C 69.180 5.756,68.912 6.011,68.810 6.235 C 68.707 6.460,68.418 6.729,68.167 6.833 C 67.915 6.937,67.625 7.208,67.522 7.436 C 67.418 7.663,67.108 7.977,66.833 8.133 C 66.558 8.289,66.290 8.549,66.238 8.710 C 66.186 8.871,65.848 9.240,65.488 9.529 C 65.128 9.819,64.833 10.135,64.833 10.233 C 64.833 10.330,64.552 10.689,64.208 11.031 C 63.390 11.844,62.771 12.595,62.240 13.417 C 62.004 13.783,61.676 14.199,61.512 14.341 C 61.348 14.483,61.017 14.911,60.776 15.292 C 60.535 15.674,60.193 16.063,60.016 16.158 C 59.839 16.253,59.647 16.543,59.590 16.802 C 59.533 17.061,59.256 17.526,58.974 17.835 C 58.692 18.144,58.326 18.711,58.161 19.096 C 57.997 19.480,57.705 19.905,57.513 20.039 C 57.321 20.174,57.052 20.659,56.916 21.118 C 56.779 21.577,56.443 22.236,56.167 22.583 C 55.892 22.929,55.667 23.356,55.667 23.531 C 55.667 23.936,55.216 24.829,54.821 25.207 C 54.654 25.366,54.428 25.950,54.319 26.504 C 54.210 27.058,53.904 27.839,53.639 28.240 C 53.311 28.735,53.082 29.395,52.922 30.302 C 52.793 31.036,52.495 32.017,52.259 32.482 C 51.927 33.137,51.775 33.830,51.584 35.554 C 51.448 36.778,51.186 38.662,51.002 39.740 C 50.604 42.064,50.576 44.471,50.926 46.083 C 51.066 46.725,51.321 48.205,51.493 49.373 C 51.744 51.071,51.908 51.673,52.313 52.380 C 52.591 52.867,52.870 53.585,52.932 53.978 C 53.004 54.422,53.256 54.941,53.603 55.357 C 53.910 55.724,54.238 56.314,54.334 56.670 C 54.430 57.025,54.682 57.452,54.894 57.619 C 55.107 57.786,55.377 58.103,55.494 58.323 C 56.193 59.628,60.213 63.636,61.521 64.331 C 61.854 64.508,62.170 64.768,62.224 64.909 C 62.278 65.051,62.719 65.343,63.203 65.559 C 63.687 65.775,64.228 66.114,64.404 66.313 C 64.850 66.815,66.484 67.288,66.694 66.976 C 67.069 66.418,66.662 57.451,66.240 57.000 C 66.026 56.771,65.729 56.290,65.579 55.932 C 65.429 55.574,65.094 55.012,64.834 54.682 C 64.574 54.353,64.283 53.792,64.188 53.436 C 64.093 53.080,63.817 52.504,63.576 52.155 C 63.108 51.481,62.844 50.600,62.837 49.695 C 62.835 49.389,62.599 48.606,62.313 47.954 C 61.796 46.776,61.794 46.757,61.866 44.426 C 61.967 41.173,62.422 40.479,63.094 42.554 C 63.248 43.029,63.581 43.792,63.833 44.250 C 64.352 45.189,64.602 46.191,64.760 47.967 C 64.844 48.906,64.960 49.292,65.270 49.660 C 65.733 50.210,66.167 51.174,66.167 51.651 C 66.167 52.072,66.493 52.279,66.683 51.980 C 66.763 51.853,66.830 50.550,66.832 49.083 C 66.838 44.948,67.093 42.073,67.588 40.550 C 67.867 39.692,68.064 38.570,68.168 37.250 C 68.352 34.905,68.458 34.128,68.703 33.333 C 68.943 32.556,70.119 30.833,70.411 30.833 C 70.863 30.833,71.306 34.362,70.998 35.506 C 70.675 36.706,71.568 36.930,72.196 35.806 C 72.696 34.911,73.316 34.462,74.088 34.437 C 74.983 34.408,75.216 34.835,74.641 35.452 C 74.403 35.708,74.143 36.120,74.062 36.368 C 73.982 36.617,73.100 37.653,72.103 38.671 L 70.289 40.522 70.407 44.553 C 70.473 46.770,70.632 49.708,70.762 51.083 C 70.892 52.458,71.075 55.533,71.169 57.917 C 71.438 64.734,71.626 67.097,72.079 69.315 C 72.310 70.450,72.500 71.894,72.500 72.523 L 72.500 73.667 74.917 73.667 L 77.333 73.667 77.333 36.833 L 77.333 0.000 75.833 0.000 L 74.333 0.000 74.323 0.458 M227.724 23.244 C 227.435 23.369,227.151 23.620,227.093 23.803 C 226.995 24.111,226.813 24.140,224.602 24.193 C 222.117 24.252,221.667 24.378,221.667 25.010 C 221.667 25.246,221.493 25.335,220.875 25.411 C 219.527 25.579,219.263 25.709,219.091 26.293 C 218.975 26.684,218.833 26.833,218.575 26.833 C 218.142 26.833,217.667 27.323,217.667 27.768 C 217.667 27.976,217.488 28.161,217.170 28.281 C 216.613 28.491,216.400 28.896,216.253 30.022 C 216.164 30.704,216.097 30.806,215.680 30.889 C 215.071 31.011,215.009 31.203,214.886 33.348 C 214.799 34.873,214.740 35.152,214.488 35.218 C 213.645 35.439,213.651 39.115,214.496 39.714 C 214.720 39.873,214.808 40.293,214.901 41.654 C 215.033 43.586,215.158 43.950,215.745 44.097 C 216.024 44.167,216.182 44.357,216.261 44.718 C 216.324 45.005,216.436 45.354,216.509 45.495 C 216.582 45.635,216.683 45.882,216.734 46.044 C 216.784 46.206,217.007 46.408,217.229 46.492 C 217.475 46.586,217.708 46.869,217.822 47.215 C 218.024 47.826,218.453 48.101,219.464 48.265 C 219.947 48.343,220.138 48.481,220.333 48.891 C 220.564 49.376,220.673 49.430,221.750 49.585 C 222.757 49.729,222.924 49.802,222.968 50.114 C 223.080 50.897,223.225 50.917,228.741 50.917 C 234.314 50.917,234.728 50.856,234.951 50.001 C 235.033 49.689,235.647 49.500,236.578 49.500 C 237.142 49.500,237.667 49.081,237.667 48.630 C 237.667 48.485,237.869 48.319,238.124 48.255 C 238.753 48.097,239.000 47.860,239.000 47.414 C 239.000 47.141,239.127 47.004,239.457 46.921 C 240.117 46.756,240.333 46.523,240.333 45.980 C 240.333 45.658,240.418 45.500,240.591 45.500 C 241.069 45.500,241.667 44.723,241.667 44.102 C 241.667 43.307,241.912 42.728,242.292 42.629 C 242.749 42.510,242.969 41.462,243.075 38.917 C 243.261 34.407,242.952 32.459,241.999 32.138 C 241.910 32.108,241.788 31.617,241.728 31.046 C 241.617 29.980,241.372 29.587,240.750 29.474 C 240.544 29.436,240.395 29.255,240.359 28.998 C 240.280 28.428,240.031 28.167,239.566 28.167 C 239.275 28.167,239.145 28.048,239.064 27.708 C 238.918 27.097,238.691 26.833,238.314 26.833 C 238.118 26.833,237.894 26.603,237.710 26.211 C 237.465 25.691,237.310 25.572,236.768 25.483 C 236.411 25.425,235.998 25.230,235.851 25.049 C 235.320 24.397,234.474 24.167,232.611 24.167 C 231.021 24.167,230.846 24.136,230.753 23.844 C 230.570 23.268,228.584 22.875,227.724 23.244 M293.544 23.191 C 293.174 23.294,292.972 23.472,292.901 23.754 L 292.797 24.167 290.524 24.169 C 288.079 24.172,287.455 24.326,287.365 24.952 C 287.321 25.258,287.171 25.327,286.365 25.414 C 285.246 25.534,284.938 25.675,284.857 26.101 C 284.766 26.581,284.499 26.833,284.081 26.833 C 283.795 26.833,283.638 26.996,283.436 27.500 C 283.231 28.013,283.079 28.167,282.778 28.167 C 282.391 28.167,282.000 28.715,282.000 29.258 C 282.000 29.391,281.852 29.500,281.671 29.500 C 281.208 29.500,280.887 30.093,280.758 31.186 C 280.667 31.964,280.579 32.153,280.237 32.309 C 279.549 32.622,279.464 33.163,279.461 37.250 C 279.459 41.461,279.593 42.398,280.241 42.693 C 280.633 42.871,280.833 43.422,280.833 44.317 C 280.833 44.893,281.266 45.500,281.676 45.500 C 281.854 45.500,282.000 45.609,282.000 45.742 C 282.000 46.259,282.395 46.820,282.825 46.915 C 283.140 46.984,283.332 47.180,283.477 47.584 C 283.643 48.042,283.797 48.176,284.259 48.263 C 284.651 48.336,284.833 48.462,284.833 48.659 C 284.833 49.091,285.377 49.500,285.951 49.500 C 286.955 49.500,287.469 49.687,287.570 50.089 C 287.756 50.833,288.452 50.917,294.417 50.917 C 300.287 50.917,300.565 50.881,300.761 50.100 C 300.851 49.742,300.974 49.701,302.278 49.595 C 304.946 49.379,304.833 49.671,304.833 43.001 C 304.833 37.666,304.789 37.333,304.083 37.333 C 304.006 37.333,303.804 37.208,303.634 37.054 C 303.398 36.840,303.280 36.820,303.129 36.971 C 302.782 37.318,300.374 37.223,299.890 36.842 C 298.793 35.979,297.890 37.551,298.078 39.997 C 298.145 40.870,298.250 42.284,298.311 43.140 C 298.396 44.337,298.488 44.746,298.711 44.909 C 299.057 45.162,299.083 45.333,298.776 45.333 C 298.474 45.333,298.000 45.876,298.000 46.221 C 298.000 46.472,297.681 46.500,294.829 46.500 L 291.658 46.500 291.504 46.093 C 291.306 45.574,290.934 45.380,289.862 45.238 C 289.113 45.139,289.000 45.075,289.000 44.749 C 289.000 44.333,288.746 44.066,288.265 43.976 C 288.075 43.941,287.867 43.681,287.751 43.333 C 287.593 42.860,287.461 42.741,287.053 42.700 L 286.549 42.649 286.435 39.932 C 286.269 36.002,286.461 32.333,286.833 32.333 C 287.216 32.333,287.667 31.805,287.667 31.356 C 287.667 30.865,288.716 29.833,289.215 29.833 C 289.607 29.833,290.333 29.219,290.333 28.888 C 290.333 28.208,297.909 28.405,298.170 29.092 C 298.309 29.458,298.804 29.687,299.958 29.918 C 300.328 29.992,300.500 30.121,300.500 30.326 C 300.500 30.834,300.986 31.078,302.000 31.078 C 303.057 31.078,303.500 30.833,303.500 30.250 C 303.500 29.993,303.652 29.811,303.978 29.676 C 305.400 29.087,305.086 25.500,303.612 25.500 C 302.691 25.500,302.229 25.305,302.055 24.844 C 301.832 24.254,301.394 24.167,298.665 24.167 C 296.683 24.167,296.533 24.144,296.452 23.835 C 296.306 23.277,294.592 22.897,293.544 23.191 M339.364 23.281 C 339.244 23.329,339.080 23.539,339.001 23.748 C 338.862 24.114,338.770 24.131,336.525 24.192 C 334.123 24.258,333.500 24.446,333.500 25.106 C 333.500 25.228,333.294 25.370,333.042 25.422 C 331.761 25.686,331.350 25.890,331.157 26.357 C 331.037 26.648,330.835 26.833,330.639 26.833 C 330.220 26.833,329.500 27.560,329.500 27.983 C 329.500 28.175,329.315 28.407,329.062 28.533 C 328.644 28.740,328.317 29.361,328.097 30.364 C 328.043 30.610,327.847 30.859,327.662 30.918 C 326.795 31.193,326.750 31.500,326.750 37.076 C 326.750 42.817,326.842 43.490,327.686 43.927 C 328.020 44.099,328.160 44.312,328.198 44.707 C 328.239 45.137,328.363 45.300,328.795 45.490 C 329.172 45.656,329.381 45.888,329.471 46.240 C 329.570 46.623,329.745 46.797,330.176 46.938 C 330.615 47.082,330.770 47.239,330.833 47.605 C 330.896 47.966,331.046 48.121,331.441 48.238 C 331.787 48.340,332.042 48.567,332.191 48.905 C 332.402 49.384,332.494 49.426,333.625 49.565 C 334.595 49.684,334.833 49.769,334.833 49.997 C 334.833 50.869,335.141 50.917,340.733 50.917 C 346.315 50.917,346.833 50.840,346.833 50.018 C 346.833 49.699,347.492 49.506,348.592 49.502 C 349.198 49.500,349.500 49.239,349.500 48.717 C 349.500 48.460,349.598 48.333,349.796 48.333 C 350.276 48.333,350.833 47.845,350.833 47.426 C 350.833 47.114,350.948 47.016,351.412 46.929 C 351.913 46.835,352.015 46.732,352.168 46.160 C 352.296 45.687,352.435 45.500,352.661 45.500 C 353.186 45.500,353.449 45.072,353.567 44.027 C 353.665 43.157,353.730 43.020,354.085 42.931 C 354.866 42.735,354.914 42.417,354.905 37.417 C 354.896 32.348,354.872 32.205,353.870 31.203 C 353.664 30.997,353.500 30.627,353.500 30.367 C 353.500 29.804,353.230 29.500,352.730 29.500 C 352.449 29.500,352.332 29.371,352.242 28.964 C 352.177 28.669,352.064 28.313,351.991 28.172 C 351.918 28.032,351.816 27.784,351.766 27.621 C 351.716 27.459,351.541 27.283,351.379 27.231 C 351.216 27.179,350.933 27.073,350.750 26.995 C 350.567 26.918,350.267 26.811,350.083 26.758 C 349.900 26.705,349.637 26.419,349.500 26.123 C 349.318 25.730,349.121 25.569,348.777 25.529 C 348.462 25.493,348.211 25.313,348.027 24.990 C 347.643 24.317,347.540 24.291,344.958 24.205 C 343.201 24.147,342.667 24.077,342.667 23.907 C 342.667 23.315,340.369 22.879,339.364 23.281 M95.574 24.403 C 95.259 24.633,95.249 24.983,95.200 36.528 C 95.146 49.164,95.175 50.009,95.680 50.514 C 96.239 51.073,99.964 50.988,100.513 50.403 L 100.917 49.973 100.974 45.153 L 101.030 40.333 103.236 40.333 C 105.499 40.333,106.167 40.118,106.167 39.388 C 106.167 39.293,106.696 39.165,107.344 39.105 C 108.822 38.968,109.621 38.642,109.830 38.091 C 109.941 37.801,110.117 37.667,110.387 37.667 C 110.870 37.667,111.333 37.187,111.333 36.687 C 111.333 36.425,111.480 36.265,111.833 36.142 C 112.680 35.846,112.881 34.771,112.804 30.939 C 112.735 27.535,112.636 27.082,111.918 26.902 C 111.695 26.846,111.463 26.639,111.403 26.442 C 111.225 25.858,110.813 25.500,110.317 25.500 C 109.979 25.500,109.792 25.379,109.634 25.058 C 109.238 24.253,108.536 24.172,101.907 24.169 C 96.977 24.167,95.839 24.209,95.574 24.403 M120.426 24.537 C 120.283 24.741,120.167 25.070,120.167 25.269 C 120.167 25.514,120.035 25.664,119.756 25.734 C 119.297 25.849,118.833 27.063,118.833 28.148 C 118.833 28.593,118.694 28.879,118.258 29.326 C 117.771 29.826,117.662 30.082,117.550 30.998 C 117.440 31.890,117.359 32.090,117.083 32.141 C 116.498 32.249,116.368 32.488,116.249 33.674 C 116.154 34.621,116.080 34.833,115.842 34.833 C 115.339 34.833,115.043 35.379,114.925 36.525 C 114.832 37.424,114.750 37.650,114.489 37.718 C 114.313 37.764,114.125 37.940,114.072 38.109 C 114.019 38.278,113.907 38.545,113.823 38.703 C 113.739 38.860,113.622 39.408,113.561 39.921 C 113.468 40.718,113.372 40.914,112.901 41.273 C 112.400 41.655,112.341 41.797,112.237 42.846 C 112.144 43.790,112.071 44.000,111.832 44.000 C 111.366 44.000,111.158 44.398,111.033 45.525 C 110.937 46.398,110.859 46.590,110.583 46.641 C 109.814 46.783,109.577 47.522,109.766 49.193 C 109.937 50.701,110.133 50.836,112.125 50.821 C 114.859 50.799,115.231 50.479,115.450 47.958 C 115.530 47.049,115.603 46.833,115.832 46.833 C 116.334 46.833,116.624 46.281,116.747 45.091 C 116.847 44.124,116.958 43.820,117.418 43.257 C 117.720 42.887,117.994 42.408,118.026 42.193 L 118.083 41.803 121.250 41.824 C 123.460 41.839,124.436 41.903,124.482 42.036 C 124.518 42.141,124.723 42.389,124.936 42.587 C 125.222 42.851,125.353 43.207,125.434 43.932 C 125.550 44.969,125.858 45.500,126.344 45.500 C 126.593 45.500,126.653 45.731,126.754 47.086 C 126.882 48.783,127.206 49.500,127.845 49.500 C 128.056 49.500,128.167 49.615,128.167 49.833 C 128.167 50.843,132.588 51.416,133.406 50.512 C 134.177 49.660,133.816 46.046,132.919 45.637 C 132.607 45.495,132.519 45.284,132.424 44.449 C 132.291 43.270,132.126 42.896,131.676 42.753 C 131.437 42.677,131.324 42.442,131.250 41.867 C 131.068 40.460,131.002 40.305,130.509 40.119 C 130.074 39.955,130.022 39.847,129.919 38.885 C 129.795 37.721,129.481 36.955,128.985 36.608 C 128.748 36.442,128.623 36.081,128.527 35.278 C 128.397 34.198,128.025 33.500,127.579 33.500 C 127.379 33.500,127.172 32.653,127.169 31.817 C 127.167 31.348,126.712 30.833,126.300 30.833 C 126.103 30.833,126.015 30.552,125.924 29.628 C 125.786 28.229,125.496 27.432,125.034 27.185 C 124.771 27.044,124.692 26.788,124.635 25.899 C 124.536 24.342,124.294 24.167,122.241 24.167 C 120.823 24.167,120.663 24.199,120.426 24.537 M135.554 24.274 C 134.734 24.453,134.757 24.099,134.737 36.814 C 134.714 52.124,134.422 50.722,137.649 50.804 C 141.703 50.908,141.592 51.054,141.555 45.638 L 141.526 41.527 141.988 41.687 C 142.367 41.820,142.498 42.021,142.719 42.818 C 142.944 43.626,143.073 43.823,143.494 43.998 C 143.843 44.142,144.000 44.322,144.000 44.578 C 144.000 44.992,144.475 45.500,144.864 45.500 C 145.009 45.500,145.184 45.734,145.271 46.042 C 145.375 46.411,145.589 46.657,145.944 46.814 C 146.288 46.967,146.515 47.219,146.612 47.559 C 146.721 47.940,146.899 48.114,147.297 48.228 C 147.624 48.321,147.833 48.490,147.833 48.658 C 147.833 49.998,149.453 50.822,152.099 50.828 C 154.862 50.835,154.833 50.858,154.833 48.632 C 154.833 46.935,154.774 46.798,153.958 46.603 C 153.619 46.522,153.500 46.392,153.500 46.101 C 153.500 45.645,153.267 45.423,152.625 45.270 C 152.286 45.189,152.167 45.058,152.167 44.767 C 152.167 44.307,151.925 44.071,151.291 43.912 C 150.966 43.831,150.833 43.691,150.833 43.432 C 150.833 42.970,150.535 42.667,150.079 42.667 C 149.809 42.667,149.689 42.519,149.571 42.043 C 149.446 41.539,149.326 41.403,148.942 41.334 C 148.481 41.252,148.311 40.976,147.885 39.619 C 147.833 39.456,147.602 39.223,147.370 39.101 C 147.137 38.979,146.867 38.628,146.766 38.315 C 146.641 37.927,146.414 37.675,146.042 37.512 C 145.726 37.373,145.500 37.151,145.500 36.980 C 145.500 36.818,145.434 36.645,145.352 36.595 C 145.140 36.464,145.583 35.279,145.900 35.127 C 146.047 35.057,146.296 34.937,146.455 34.859 C 146.613 34.782,146.783 34.545,146.833 34.333 C 146.883 34.122,147.054 33.885,147.212 33.807 C 147.370 33.730,147.630 33.603,147.788 33.526 C 147.946 33.448,148.117 33.212,148.167 33.000 C 148.217 32.788,148.387 32.552,148.545 32.474 C 148.704 32.397,148.963 32.270,149.121 32.193 C 149.280 32.115,149.450 31.878,149.500 31.667 C 149.583 31.316,149.745 31.181,150.500 30.832 C 150.637 30.768,150.774 30.518,150.803 30.275 C 150.843 29.942,150.949 29.833,151.235 29.833 C 151.667 29.833,152.167 29.359,152.167 28.948 C 152.167 28.784,152.351 28.633,152.625 28.572 C 154.285 28.207,154.656 27.784,154.790 26.100 C 154.921 24.464,154.694 24.292,152.284 24.199 C 149.873 24.107,149.545 24.184,149.242 24.911 C 149.068 25.325,148.885 25.492,148.558 25.530 C 148.215 25.571,148.066 25.720,147.917 26.167 C 147.772 26.601,147.615 26.763,147.301 26.801 C 146.889 26.850,146.500 27.395,146.500 27.925 C 146.500 28.070,146.338 28.167,146.093 28.167 C 145.659 28.167,145.167 28.712,145.167 29.193 C 145.167 29.380,145.009 29.496,144.708 29.531 C 144.384 29.568,144.177 29.738,144.000 30.111 C 143.862 30.401,143.525 30.738,143.250 30.861 C 142.910 31.012,142.734 31.222,142.700 31.516 C 142.662 31.844,142.513 31.991,142.087 32.122 L 141.525 32.294 141.621 28.910 C 141.721 25.380,141.628 24.668,141.026 24.401 C 140.710 24.261,136.103 24.154,135.554 24.274 M156.583 24.283 C 155.828 24.460,155.833 24.392,155.833 34.261 C 155.833 42.382,155.867 43.653,156.083 43.833 C 156.221 43.947,156.333 44.145,156.333 44.272 C 156.333 44.399,156.483 44.632,156.667 44.789 C 156.850 44.946,157.001 45.264,157.002 45.495 C 157.007 46.312,157.205 46.678,157.771 46.915 C 158.141 47.069,158.333 47.262,158.333 47.480 C 158.333 47.661,158.427 47.912,158.542 48.037 C 158.656 48.162,158.833 48.411,158.934 48.590 C 159.134 48.944,159.986 49.419,160.688 49.569 C 160.930 49.621,161.164 49.806,161.210 49.981 C 161.579 51.392,172.583 51.410,172.952 50.000 C 173.034 49.687,173.236 49.590,174.077 49.464 C 174.281 49.433,174.462 49.217,174.554 48.893 C 174.665 48.508,174.842 48.331,175.226 48.221 C 175.618 48.109,175.770 47.953,175.833 47.601 C 175.892 47.267,176.086 47.051,176.500 46.856 C 177.062 46.592,177.089 46.537,177.231 45.374 C 177.350 44.405,177.436 44.167,177.664 44.167 C 178.578 44.167,178.579 44.157,178.639 35.191 C 178.685 28.377,178.736 26.871,178.929 26.656 C 179.485 26.036,179.406 25.438,178.681 24.782 L 177.999 24.167 176.416 24.167 L 174.833 24.167 174.158 24.842 C 173.447 25.553,173.416 25.798,173.934 26.619 C 174.124 26.920,174.166 28.300,174.163 34.119 L 174.159 41.250 173.621 41.500 C 173.121 41.732,173.073 41.830,172.932 42.875 C 172.813 43.760,172.721 44.000,172.500 44.000 C 172.160 44.000,171.667 44.512,171.667 44.864 C 171.667 45.009,171.433 45.184,171.125 45.271 C 170.750 45.377,170.510 45.589,170.345 45.962 L 170.107 46.500 167.720 46.500 C 165.511 46.500,165.333 46.477,165.333 46.192 C 165.333 45.805,164.825 45.334,164.404 45.331 C 163.968 45.327,163.733 45.150,163.600 44.726 C 163.539 44.530,163.352 44.334,163.186 44.290 C 162.962 44.232,162.852 43.982,162.768 43.349 C 162.616 42.202,162.358 41.679,161.888 41.561 L 161.500 41.464 161.500 35.250 C 161.500 30.138,161.541 29.020,161.729 28.948 C 162.563 28.628,163.004 25.433,162.310 24.738 C 161.823 24.251,158.012 23.949,156.583 24.283 M180.917 24.241 C 180.825 24.276,180.553 24.347,180.313 24.400 C 179.240 24.635,179.240 27.903,180.313 28.244 C 180.634 28.346,180.833 28.966,180.833 29.865 C 180.833 30.565,181.116 31.000,181.570 31.000 C 181.953 31.000,181.964 31.042,182.027 32.746 C 182.067 33.820,182.170 34.570,182.296 34.696 C 182.408 34.808,182.500 35.030,182.500 35.188 C 182.500 35.346,182.688 35.623,182.917 35.804 C 183.261 36.074,183.333 36.275,183.333 36.955 C 183.333 38.475,183.669 39.684,184.172 39.972 C 184.596 40.216,184.627 40.316,184.713 41.766 C 184.815 43.472,184.990 43.949,185.566 44.094 C 185.936 44.187,185.961 44.281,186.036 45.847 C 186.117 47.519,186.366 48.167,186.931 48.167 C 187.064 48.167,187.187 48.520,187.261 49.114 C 187.446 50.590,187.785 50.833,189.661 50.833 C 190.492 50.833,191.339 50.747,191.544 50.641 C 191.749 50.535,192.024 50.399,192.156 50.338 C 192.287 50.277,192.444 50.120,192.505 49.989 C 192.565 49.857,192.699 49.586,192.802 49.387 C 192.904 49.187,193.039 48.530,193.101 47.928 C 193.170 47.246,193.289 46.833,193.414 46.833 C 193.929 46.833,194.173 46.208,194.277 44.621 C 194.375 43.129,194.408 43.018,194.770 42.927 C 195.348 42.781,195.542 42.255,195.629 40.589 C 195.708 39.097,195.714 39.081,196.229 38.833 C 196.823 38.548,196.974 38.015,196.990 36.144 C 197.003 34.668,197.720 34.283,197.909 35.651 C 198.063 36.767,198.326 37.325,198.747 37.431 C 199.086 37.516,199.127 37.652,199.213 38.970 C 199.323 40.644,199.516 41.263,199.975 41.409 C 200.259 41.499,200.319 41.726,200.422 43.093 C 200.542 44.693,200.873 45.500,201.409 45.500 C 201.566 45.500,201.660 45.957,201.745 47.125 C 201.875 48.929,202.118 49.500,202.754 49.500 C 203.056 49.500,203.167 49.590,203.167 49.833 C 203.167 50.575,203.720 50.833,205.308 50.833 C 206.892 50.833,207.333 50.625,207.333 49.880 C 207.333 49.653,207.474 49.501,207.748 49.432 C 208.423 49.263,208.677 48.671,208.785 47.014 C 208.867 45.740,208.927 45.500,209.166 45.500 C 209.776 45.500,210.021 44.928,210.120 43.277 C 210.208 41.792,210.239 41.685,210.602 41.593 C 211.178 41.449,211.352 40.970,211.455 39.246 C 211.541 37.793,211.573 37.685,211.936 37.593 C 212.518 37.447,212.709 36.921,212.798 35.214 C 212.869 33.852,212.915 33.667,213.186 33.667 C 213.709 33.667,213.977 32.996,214.099 31.375 C 214.184 30.245,214.275 29.833,214.441 29.833 C 214.960 29.833,215.295 29.209,215.415 28.019 C 215.480 27.367,215.605 26.833,215.692 26.833 C 215.990 26.833,216.342 25.711,216.179 25.282 C 215.639 23.863,211.338 23.665,211.079 25.047 C 211.013 25.401,210.817 25.682,210.516 25.855 C 209.948 26.181,209.667 27.369,209.667 29.444 C 209.667 30.796,209.656 30.833,209.270 30.833 C 208.608 30.833,208.450 31.228,208.367 33.092 C 208.300 34.595,208.251 34.833,208.004 34.833 C 207.388 34.833,207.146 35.402,207.045 37.084 C 206.970 38.352,206.892 38.717,206.683 38.790 C 206.536 38.842,206.296 38.987,206.149 39.113 C 205.921 39.308,205.850 39.304,205.670 39.088 C 205.554 38.948,205.365 38.833,205.249 38.833 C 205.108 38.833,205.002 38.410,204.926 37.542 C 204.779 35.854,204.557 35.180,204.091 35.003 C 203.752 34.874,203.699 34.694,203.546 33.149 C 203.378 31.451,203.199 31.048,202.506 30.805 C 202.420 30.775,202.297 30.041,202.232 29.174 C 202.114 27.604,201.872 27.047,201.207 26.816 C 201.101 26.780,200.956 26.265,200.883 25.672 C 200.719 24.342,200.468 24.173,198.648 24.169 C 195.568 24.163,195.357 24.321,195.213 26.728 C 195.125 28.207,195.094 28.315,194.732 28.406 C 194.243 28.529,193.833 29.802,193.833 31.200 C 193.833 32.077,193.792 32.193,193.417 32.363 C 192.920 32.590,192.712 33.238,192.562 35.029 C 192.464 36.186,192.417 36.318,192.068 36.406 C 191.604 36.522,191.377 37.209,191.224 38.950 C 191.064 40.783,190.341 40.851,190.336 39.034 C 190.333 38.172,189.850 37.333,189.357 37.333 C 189.270 37.333,189.145 36.548,189.080 35.587 C 189.001 34.429,188.883 33.777,188.730 33.650 C 188.604 33.545,188.500 33.367,188.500 33.255 C 188.500 33.143,188.361 32.926,188.191 32.772 C 187.943 32.548,187.863 32.160,187.789 30.824 C 187.694 29.085,187.464 28.450,186.862 28.259 C 186.591 28.173,186.536 27.931,186.455 26.475 C 186.330 24.196,186.414 24.259,183.453 24.214 C 182.150 24.194,181.008 24.206,180.917 24.241 M245.426 24.537 C 245.198 24.863,245.167 26.172,245.167 35.388 L 245.167 45.869 244.645 46.527 C 243.571 47.883,243.839 50.134,245.127 50.572 C 246.078 50.896,248.641 50.928,249.061 50.621 C 249.584 50.238,249.659 49.174,249.663 42.042 C 249.665 37.879,249.729 35.000,249.820 35.000 C 250.222 35.000,250.500 35.238,250.500 35.581 C 250.500 36.026,250.747 36.264,251.376 36.421 C 251.707 36.504,251.833 36.641,251.833 36.914 C 251.833 37.365,252.100 37.614,252.667 37.692 C 252.964 37.734,253.100 37.869,253.141 38.167 C 253.220 38.737,253.444 38.971,253.971 39.032 C 254.302 39.070,254.431 39.190,254.474 39.500 C 254.554 40.074,254.802 40.333,255.275 40.333 C 255.585 40.333,255.697 40.444,255.774 40.830 C 255.883 41.376,256.089 41.600,256.562 41.690 C 256.743 41.725,256.952 41.990,257.062 42.324 C 257.207 42.766,257.375 42.930,257.792 43.037 C 258.090 43.113,258.333 43.284,258.333 43.416 C 258.333 43.857,259.044 45.027,259.390 45.155 C 259.577 45.224,259.815 45.537,259.918 45.849 C 260.044 46.232,260.278 46.494,260.636 46.655 C 260.996 46.817,261.167 47.010,261.167 47.254 C 261.167 47.671,261.649 48.167,262.055 48.167 C 262.249 48.167,262.333 48.308,262.333 48.633 C 262.333 49.226,262.608 49.500,263.200 49.500 C 263.578 49.500,263.667 49.574,263.667 49.891 C 263.667 50.896,266.801 51.338,267.634 50.451 L 267.994 50.069 268.004 37.537 C 268.011 29.109,267.958 24.899,267.840 24.680 C 267.610 24.249,266.569 24.100,264.534 24.207 C 262.142 24.332,262.333 23.668,262.333 31.852 L 262.333 38.667 261.935 38.667 C 261.639 38.667,261.506 38.549,261.421 38.209 C 261.264 37.583,261.027 37.333,260.587 37.333 C 260.311 37.333,260.175 37.195,260.061 36.797 C 259.947 36.398,259.774 36.221,259.389 36.111 C 259.010 36.002,258.831 35.824,258.722 35.444 C 258.613 35.065,258.435 34.887,258.054 34.777 C 257.664 34.665,257.510 34.506,257.436 34.140 C 257.365 33.785,257.182 33.587,256.764 33.412 C 256.337 33.233,256.176 33.055,256.136 32.716 C 256.095 32.364,255.960 32.225,255.540 32.106 C 255.128 31.988,254.965 31.826,254.865 31.434 C 254.767 31.047,254.600 30.877,254.201 30.757 C 253.894 30.666,253.625 30.453,253.568 30.257 C 253.286 29.292,252.902 28.649,252.556 28.562 C 252.318 28.502,252.114 28.261,251.994 27.898 C 251.882 27.558,251.617 27.230,251.338 27.085 C 251.080 26.952,250.790 26.616,250.694 26.339 C 250.597 26.061,250.321 25.745,250.082 25.636 C 249.808 25.511,249.610 25.257,249.549 24.955 C 249.373 24.074,245.991 23.731,245.426 24.537 M307.668 24.382 C 307.041 24.699,307.041 24.707,307.024 37.250 C 307.004 52.005,306.736 50.841,310.143 50.821 C 313.667 50.799,313.932 50.565,313.890 47.500 C 313.856 44.992,313.610 43.500,313.171 43.140 C 312.631 42.697,312.663 40.286,313.208 40.363 C 313.463 40.400,313.602 40.551,313.641 40.833 C 313.720 41.405,313.969 41.667,314.434 41.667 C 314.725 41.667,314.855 41.786,314.936 42.125 C 315.082 42.734,315.308 43.000,315.681 43.000 C 316.057 43.000,316.333 43.480,316.333 44.133 C 316.333 44.727,316.906 45.500,317.345 45.500 C 317.588 45.500,317.667 45.617,317.667 45.980 C 317.667 46.495,317.892 46.762,318.406 46.857 C 318.602 46.894,318.781 47.118,318.861 47.426 C 318.933 47.705,319.293 48.230,319.660 48.592 C 320.027 48.954,320.329 49.410,320.331 49.607 C 320.340 50.797,325.663 51.521,326.768 50.483 C 327.677 49.629,327.210 46.667,326.167 46.667 C 325.958 46.667,325.833 46.556,325.833 46.370 C 325.833 45.934,325.359 45.333,325.015 45.333 C 324.819 45.333,324.662 45.145,324.562 44.792 C 324.458 44.422,324.244 44.177,323.889 44.019 C 323.543 43.865,323.319 43.615,323.221 43.269 C 323.100 42.844,322.975 42.740,322.536 42.698 C 322.149 42.660,322.000 42.562,322.000 42.344 C 322.000 41.759,321.346 40.559,320.922 40.366 C 320.630 40.233,320.500 40.042,320.500 39.746 C 320.500 39.511,320.328 39.146,320.118 38.937 C 319.827 38.646,319.784 38.511,319.935 38.370 C 320.044 38.268,320.162 38.097,320.198 37.989 C 320.234 37.881,320.561 37.745,320.924 37.687 C 321.452 37.603,321.628 37.481,321.809 37.071 C 321.958 36.734,322.214 36.506,322.559 36.405 C 322.947 36.290,323.125 36.110,323.241 35.713 C 323.349 35.348,323.549 35.124,323.867 35.013 C 324.606 34.756,324.696 34.246,324.637 30.650 C 324.579 27.149,324.505 26.833,323.730 26.833 C 323.461 26.833,323.333 26.738,323.333 26.537 C 323.333 26.057,322.845 25.500,322.424 25.500 C 322.157 25.500,321.928 25.323,321.704 24.942 C 321.426 24.471,321.251 24.367,320.581 24.275 C 319.037 24.064,308.118 24.154,307.668 24.382 M357.417 24.393 C 357.090 24.635,357.083 24.833,357.083 34.778 C 357.083 45.790,357.084 45.802,358.014 46.380 C 358.202 46.497,358.384 46.848,358.442 47.205 C 358.555 47.909,358.736 48.110,359.333 48.192 C 359.631 48.234,359.766 48.369,359.808 48.667 C 359.892 49.279,360.142 49.500,360.750 49.500 C 361.796 49.500,362.301 49.682,362.405 50.097 C 362.598 50.866,362.933 50.917,367.857 50.917 C 372.814 50.917,373.167 50.855,373.167 49.986 C 373.167 49.750,373.358 49.670,374.125 49.587 C 375.341 49.456,375.547 49.343,375.743 48.694 C 375.857 48.316,376.003 48.167,376.259 48.167 C 376.740 48.167,377.167 47.660,377.167 47.089 C 377.167 46.827,377.332 46.455,377.542 46.243 C 378.433 45.344,378.655 44.767,378.663 43.332 C 378.666 42.769,378.749 42.529,378.993 42.377 C 379.729 41.917,379.811 41.000,379.852 32.794 C 379.898 23.291,380.185 24.041,376.563 24.202 C 374.006 24.315,374.190 23.483,374.177 35.007 L 374.167 43.764 373.625 43.924 C 373.229 44.040,373.043 44.219,372.934 44.589 C 372.801 45.039,372.671 45.123,371.767 45.339 C 370.941 45.538,370.709 45.669,370.533 46.042 L 370.315 46.500 368.426 46.500 C 366.572 46.500,366.534 46.492,366.436 46.102 C 366.325 45.659,366.124 45.548,364.927 45.271 C 364.205 45.104,364.087 45.015,363.967 44.553 C 363.863 44.152,363.712 44.000,363.337 43.917 L 362.844 43.809 362.797 34.246 C 362.760 26.682,362.705 24.638,362.534 24.467 C 362.197 24.129,357.858 24.067,357.417 24.393 M383.740 24.403 C 383.408 24.646,383.124 46.804,383.422 49.305 C 383.591 50.727,383.785 50.833,386.218 50.833 C 389.261 50.833,389.149 51.071,389.159 44.625 L 389.167 40.333 391.391 40.333 C 393.722 40.333,394.167 40.195,394.167 39.470 C 394.167 39.275,394.450 39.191,395.375 39.110 C 397.219 38.948,397.773 38.747,397.976 38.163 C 398.103 37.798,398.255 37.667,398.549 37.667 C 398.990 37.667,399.500 37.201,399.500 36.799 C 399.500 36.657,399.613 36.447,399.750 36.333 C 400.050 36.085,400.134 26.833,399.837 26.833 C 399.747 26.833,399.624 26.627,399.564 26.375 C 399.400 25.689,399.184 25.500,398.566 25.500 C 398.108 25.500,397.987 25.424,397.902 25.085 C 397.698 24.273,396.797 24.167,390.085 24.167 C 385.148 24.167,384.005 24.209,383.740 24.403 M232.260 28.920 C 232.707 29.565,232.833 29.643,233.740 29.831 L 234.658 30.022 234.770 30.869 C 234.882 31.712,235.288 32.333,235.728 32.333 C 236.046 32.333,236.231 36.370,236.075 39.926 C 235.959 42.589,235.945 42.667,235.594 42.667 C 235.128 42.667,234.833 42.968,234.833 43.446 C 234.833 43.700,234.666 43.911,234.326 44.087 C 234.047 44.231,233.739 44.525,233.641 44.739 C 233.542 44.957,233.233 45.194,232.940 45.276 C 232.584 45.377,232.341 45.595,232.178 45.962 L 231.940 46.500 228.821 46.500 L 225.703 46.500 225.605 46.112 C 225.497 45.678,224.969 45.386,224.022 45.234 C 223.494 45.150,223.355 45.040,223.188 44.578 C 223.043 44.179,222.855 43.995,222.515 43.920 C 222.084 43.825,222.035 43.737,221.933 42.874 C 221.816 41.873,221.479 41.333,220.974 41.333 C 220.684 41.333,220.667 41.115,220.667 37.500 C 220.667 34.204,220.702 33.667,220.917 33.667 C 221.423 33.667,221.794 33.054,221.915 32.019 C 222.021 31.104,222.072 31.000,222.413 31.000 C 222.838 31.000,223.101 30.747,223.192 30.250 C 223.230 30.044,223.412 29.895,223.668 29.859 C 224.210 29.784,224.468 29.561,224.532 29.113 C 224.630 28.420,231.791 28.242,232.260 28.920 M344.679 28.979 C 344.902 29.182,345.202 29.458,345.347 29.591 C 345.493 29.724,345.773 29.833,345.970 29.833 C 346.223 29.833,346.401 30.006,346.574 30.419 C 346.752 30.847,346.949 31.032,347.302 31.102 L 347.785 31.199 347.894 32.974 C 348.035 35.278,348.225 35.966,348.757 36.100 C 349.241 36.221,349.396 38.043,348.938 38.219 C 348.486 38.392,348.027 39.724,347.910 41.203 C 347.813 42.429,347.745 42.672,347.476 42.758 C 347.025 42.901,346.711 43.461,346.581 44.353 L 346.469 45.122 345.460 45.228 C 344.315 45.348,344.000 45.536,344.000 46.104 L 344.000 46.500 340.833 46.500 C 337.866 46.500,337.667 46.481,337.667 46.192 C 337.667 45.696,337.148 45.372,336.155 45.250 C 335.295 45.144,335.216 45.097,335.072 44.610 C 334.958 44.225,334.777 44.042,334.397 43.930 C 333.882 43.778,333.877 43.767,333.770 42.374 C 333.649 40.790,333.490 40.385,332.907 40.163 L 332.500 40.008 332.500 37.448 C 332.500 34.895,332.501 34.886,332.907 34.702 C 333.379 34.487,333.643 33.738,333.782 32.226 C 333.871 31.256,333.903 31.195,334.392 31.055 C 334.771 30.946,334.947 30.768,335.058 30.379 C 335.172 29.982,335.318 29.839,335.647 29.801 C 335.948 29.766,336.161 29.586,336.333 29.218 C 336.641 28.564,336.933 28.526,341.263 28.575 C 344.118 28.607,344.297 28.628,344.679 28.979 M105.833 29.050 C 105.833 29.538,106.128 29.833,106.617 29.833 C 106.992 29.833,107.000 29.870,107.000 31.553 L 107.000 33.273 106.458 33.512 C 106.072 33.681,105.902 33.878,105.865 34.194 C 105.819 34.593,105.727 34.650,104.949 34.755 C 103.867 34.901,103.525 35.078,103.329 35.593 C 103.187 35.967,103.087 36.000,102.087 36.000 L 101.000 36.000 101.000 32.333 L 101.000 28.667 103.417 28.667 C 105.827 28.667,105.833 28.668,105.833 29.050 M317.667 28.945 C 317.667 29.329,318.154 29.833,318.526 29.833 C 318.805 29.833,318.833 29.993,318.833 31.559 L 318.833 33.285 318.301 33.438 C 317.896 33.554,317.736 33.718,317.630 34.128 L 317.490 34.667 315.162 34.667 L 312.833 34.667 312.833 33.493 C 312.833 32.538,312.903 32.226,313.208 31.813 C 313.523 31.387,313.583 31.093,313.583 29.986 L 313.583 28.667 315.625 28.667 C 317.422 28.667,317.667 28.700,317.667 28.945 M394.012 29.208 C 394.184 29.601,394.376 29.765,394.708 29.803 L 395.167 29.855 395.167 31.578 L 395.167 33.301 394.660 33.477 C 394.329 33.593,394.094 33.826,393.980 34.152 C 393.830 34.581,393.699 34.666,393.028 34.763 C 392.026 34.908,391.687 35.092,391.496 35.593 C 391.354 35.967,391.253 36.000,390.254 36.000 L 389.167 36.000 389.167 32.333 L 389.167 28.667 391.470 28.667 L 393.773 28.667 394.012 29.208 M38.110 29.258 C 37.758 29.387,37.320 29.684,37.136 29.917 C 36.953 30.151,36.566 30.443,36.276 30.567 C 35.987 30.690,35.525 30.993,35.250 31.239 C 34.975 31.485,34.525 31.803,34.250 31.946 C 33.975 32.088,33.584 32.411,33.381 32.663 C 33.177 32.915,32.793 33.212,32.527 33.322 C 32.261 33.432,31.960 33.706,31.857 33.930 C 31.755 34.155,31.491 34.420,31.271 34.521 C 31.050 34.621,30.787 34.886,30.685 35.109 C 30.583 35.333,30.276 35.643,30.001 35.799 C 29.727 35.956,29.502 36.146,29.501 36.223 C 29.500 36.300,29.181 36.695,28.792 37.101 C 27.612 38.330,27.021 39.045,26.515 39.855 C 26.250 40.280,25.949 40.679,25.846 40.742 C 25.744 40.805,25.478 41.217,25.255 41.658 C 25.031 42.098,24.741 42.500,24.608 42.551 C 24.476 42.601,24.246 43.011,24.096 43.461 C 23.947 43.911,23.606 44.488,23.340 44.744 C 23.031 45.040,22.814 45.456,22.741 45.895 C 22.621 46.623,22.267 47.424,21.907 47.783 C 21.788 47.902,21.612 48.394,21.516 48.875 C 21.420 49.356,21.180 50.538,20.982 51.500 C 20.414 54.263,20.400 55.466,20.905 58.290 C 21.517 61.714,21.642 62.202,22.011 62.595 C 22.189 62.784,22.522 63.419,22.752 64.006 C 22.982 64.592,23.282 65.135,23.420 65.212 C 23.557 65.288,23.819 65.646,24.003 66.007 C 24.187 66.367,24.521 66.782,24.746 66.929 C 24.970 67.076,25.201 67.347,25.260 67.530 C 25.318 67.714,25.603 67.963,25.894 68.085 C 26.185 68.206,26.572 68.470,26.753 68.671 C 26.935 68.871,27.360 69.177,27.698 69.349 C 28.804 69.914,28.833 69.801,28.836 64.863 C 28.840 59.771,28.986 58.173,29.652 55.933 C 29.927 55.007,30.228 53.948,30.322 53.578 C 30.615 52.428,30.899 52.169,31.364 52.628 C 31.804 53.063,31.957 56.300,31.992 65.917 C 32.001 68.575,32.055 71.406,32.112 72.208 L 32.214 73.667 33.015 73.667 L 33.815 73.667 33.721 71.958 C 33.624 70.188,33.901 69.333,34.573 69.333 C 34.691 69.333,35.065 69.113,35.404 68.843 C 35.743 68.574,36.396 68.228,36.856 68.076 C 37.315 67.923,37.732 67.691,37.782 67.560 C 37.832 67.428,38.104 67.202,38.385 67.056 C 38.924 66.778,40.833 64.937,40.833 64.697 C 40.833 64.620,41.019 64.457,41.246 64.336 C 41.472 64.214,41.739 63.869,41.838 63.569 C 41.937 63.269,42.241 62.743,42.512 62.401 C 42.784 62.059,43.123 61.379,43.265 60.889 C 43.407 60.400,43.699 59.681,43.913 59.291 C 44.163 58.836,44.370 58.048,44.492 57.083 C 44.597 56.258,44.837 54.946,45.026 54.167 C 45.648 51.603,45.627 49.546,44.938 45.750 C 44.805 45.017,44.614 43.497,44.513 42.374 C 44.413 41.250,44.210 40.012,44.063 39.624 C 43.759 38.818,43.241 36.874,43.093 35.982 C 43.039 35.652,42.778 35.052,42.514 34.649 C 42.250 34.246,41.949 33.502,41.846 32.996 C 41.715 32.350,41.514 31.938,41.175 31.618 C 40.908 31.367,40.600 30.881,40.490 30.539 C 40.232 29.738,39.168 28.793,38.771 29.012 C 38.760 29.018,38.462 29.129,38.110 29.258 M121.572 34.542 C 121.702 35.535,122.004 36.092,122.496 36.249 C 122.713 36.318,122.833 36.500,122.833 36.761 C 122.833 37.157,122.801 37.167,121.500 37.167 C 120.767 37.167,120.167 37.127,120.167 37.078 C 120.167 37.029,120.279 36.720,120.417 36.391 C 120.554 36.062,120.667 35.393,120.667 34.905 C 120.667 34.235,120.738 33.975,120.958 33.847 C 121.418 33.579,121.450 33.615,121.572 34.542 M6.770 47.728 C 6.180 47.860,5.683 48.084,5.520 48.290 C 5.372 48.478,4.950 48.784,4.583 48.970 C 3.197 49.673,1.167 51.858,1.167 52.646 C 1.167 53.616,0.773 54.500,0.342 54.500 C 0.003 54.500,0.000 54.560,0.000 60.667 C 0.000 66.692,0.008 66.833,0.329 66.833 C 0.560 66.833,0.697 66.674,0.793 66.292 C 0.887 65.916,1.091 65.673,1.458 65.500 C 1.749 65.362,2.078 65.034,2.189 64.770 C 3.209 62.351,5.636 62.910,4.730 65.354 C 4.344 66.394,4.334 69.560,4.714 70.250 C 5.406 71.506,5.722 72.297,5.796 72.955 L 5.877 73.667 8.855 73.667 C 11.288 73.667,11.833 73.624,11.833 73.435 C 11.833 73.156,12.651 72.070,13.625 71.056 C 14.015 70.650,14.333 70.231,14.333 70.125 C 14.333 70.019,14.550 69.704,14.816 69.425 C 15.168 69.054,15.373 68.579,15.574 67.667 C 15.725 66.979,16.047 65.854,16.290 65.167 C 16.983 63.197,16.945 59.099,16.211 56.833 C 15.929 55.962,15.617 54.768,15.519 54.179 C 15.394 53.433,15.214 52.977,14.926 52.677 C 14.699 52.439,14.395 51.909,14.251 51.498 C 13.964 50.677,13.623 50.274,11.667 48.447 C 10.817 47.653,8.569 47.322,6.770 47.728 " stroke="none" fill="#fcfbfb" fill-rule="evenodd"></path><path id="path2" d="M0.697 0.371 C 0.812 1.173,0.602 1.163,16.750 1.143 C 66.362 1.081,72.580 0.970,72.079 0.159 C 71.894 -0.139,35.667 -0.049,35.667 0.250 C 35.667 0.469,34.654 0.502,27.625 0.519 C 23.202 0.529,15.646 0.586,10.833 0.646 C 1.319 0.764,1.500 0.770,1.500 0.314 C 1.500 0.088,1.380 0.000,1.072 0.000 C 0.724 0.000,0.654 0.070,0.697 0.371 M73.167 0.293 C 73.167 0.455,73.017 0.680,72.833 0.795 C 72.623 0.926,72.500 1.183,72.500 1.494 C 72.500 1.836,72.368 2.075,72.063 2.284 C 71.823 2.449,71.321 2.864,70.947 3.207 C 70.574 3.551,70.145 3.871,69.994 3.919 C 69.843 3.966,69.620 4.192,69.499 4.419 C 69.377 4.647,69.219 4.833,69.148 4.833 C 69.031 4.833,67.991 5.752,67.033 6.703 C 66.822 6.912,66.527 7.196,66.377 7.333 C 66.227 7.471,65.950 7.758,65.761 7.972 C 65.571 8.185,65.117 8.680,64.750 9.071 C 64.383 9.463,63.821 10.090,63.500 10.465 C 63.179 10.841,62.636 11.471,62.292 11.866 C 61.949 12.260,61.441 12.846,61.163 13.167 C 60.458 13.980,59.261 15.652,58.954 16.250 C 58.814 16.525,58.504 16.932,58.266 17.154 C 58.028 17.376,57.833 17.650,57.833 17.762 C 57.833 17.875,57.531 18.368,57.162 18.858 C 56.793 19.349,56.418 20.023,56.328 20.356 C 56.238 20.689,56.047 21.059,55.903 21.178 C 55.592 21.436,55.000 22.557,55.000 22.887 C 55.000 23.016,54.779 23.399,54.508 23.740 C 54.238 24.080,53.893 24.783,53.742 25.301 C 53.592 25.819,53.334 26.432,53.170 26.663 C 53.006 26.894,52.709 27.646,52.511 28.333 C 52.312 29.021,51.973 29.996,51.756 30.500 C 51.540 31.004,51.238 32.054,51.084 32.833 C 50.931 33.612,50.663 34.737,50.488 35.333 C 49.599 38.367,49.597 47.588,50.484 50.028 C 50.662 50.517,50.966 51.509,51.160 52.233 C 51.354 52.957,51.656 53.751,51.832 53.998 C 52.008 54.245,52.308 54.864,52.499 55.375 C 52.690 55.885,52.961 56.399,53.102 56.515 C 53.243 56.632,53.501 57.008,53.676 57.352 C 54.773 59.502,58.200 63.255,60.507 64.833 C 61.015 65.181,61.530 65.585,61.652 65.732 C 61.774 65.880,61.975 66.000,62.098 66.000 C 62.221 66.000,62.571 66.219,62.876 66.487 C 63.181 66.754,63.862 67.164,64.390 67.398 C 64.918 67.631,65.544 67.975,65.781 68.161 C 66.299 68.569,66.840 68.591,67.531 68.234 L 68.046 67.968 67.932 66.692 C 67.869 65.991,67.725 63.494,67.612 61.143 L 67.407 56.869 66.703 55.867 C 66.282 55.265,65.999 54.674,65.997 54.390 C 65.994 53.842,65.859 53.599,65.479 53.459 C 65.330 53.405,65.170 53.110,65.124 52.805 C 65.008 52.044,65.077 52.039,65.440 52.782 C 65.736 53.388,65.784 53.415,66.498 53.381 C 67.575 53.330,67.610 53.226,67.716 49.790 C 67.768 48.118,67.927 46.025,68.069 45.140 C 68.212 44.254,68.444 42.437,68.584 41.101 C 68.816 38.891,69.027 37.833,69.236 37.833 C 69.463 37.833,70.500 38.560,70.500 38.719 C 70.500 38.821,70.294 39.069,70.042 39.271 L 69.583 39.637 69.627 46.777 C 69.674 54.284,69.849 58.483,70.248 61.667 C 70.632 64.734,71.062 70.277,71.053 72.042 C 71.046 73.218,71.100 73.667,71.248 73.667 C 71.445 73.667,71.751 71.772,71.596 71.520 C 71.440 71.269,71.154 68.503,70.835 64.167 C 70.649 61.646,70.385 58.308,70.249 56.750 C 70.112 55.192,69.951 50.795,69.891 46.979 L 69.781 40.041 70.391 39.432 C 70.761 39.061,71.000 38.662,71.000 38.413 C 71.000 38.183,71.147 37.911,71.333 37.795 C 71.852 37.471,71.727 37.346,71.082 37.544 C 70.336 37.773,69.743 37.282,69.474 36.215 C 69.193 35.102,68.841 35.450,68.836 36.846 C 68.834 37.173,68.726 38.111,68.594 38.929 C 68.462 39.747,68.199 41.392,68.008 42.583 C 67.591 45.196,67.340 48.143,67.336 50.469 C 67.332 53.030,66.304 54.016,65.663 52.074 C 65.555 51.746,65.220 51.232,64.919 50.930 C 64.488 50.499,64.347 50.191,64.256 49.483 C 63.934 46.980,63.500 46.717,63.500 49.026 C 63.500 50.460,63.523 50.554,63.966 50.975 C 64.314 51.305,64.482 51.687,64.627 52.483 C 64.735 53.070,64.967 53.708,65.143 53.900 C 65.320 54.093,65.697 54.700,65.982 55.250 C 66.267 55.800,66.659 56.449,66.854 56.692 C 67.203 57.129,67.694 66.331,67.426 67.430 C 67.133 68.632,65.382 67.916,60.982 64.795 C 59.460 63.714,56.879 61.283,55.967 60.070 C 54.428 58.023,54.172 57.660,53.910 57.154 C 53.757 56.858,53.414 56.316,53.149 55.949 C 52.884 55.583,52.667 55.199,52.667 55.095 C 52.667 54.992,52.399 54.349,52.073 53.668 C 51.746 52.986,51.366 51.938,51.229 51.339 C 51.092 50.740,50.839 49.786,50.665 49.218 C 50.009 47.069,49.843 41.414,50.342 38.194 C 50.679 36.019,51.650 31.683,51.971 30.913 C 52.162 30.457,52.444 29.633,52.597 29.083 C 52.751 28.533,53.082 27.671,53.334 27.167 C 53.586 26.662,53.843 26.014,53.905 25.726 C 53.968 25.438,54.244 24.847,54.520 24.412 C 54.796 23.976,55.172 23.220,55.355 22.730 C 55.538 22.240,55.765 21.792,55.860 21.734 C 55.954 21.675,56.242 21.158,56.500 20.583 C 56.758 20.009,57.052 19.488,57.154 19.424 C 57.256 19.361,57.523 18.948,57.747 18.507 C 57.970 18.065,58.288 17.573,58.452 17.414 C 58.616 17.255,58.975 16.771,59.250 16.339 C 60.248 14.770,61.748 12.862,63.878 10.451 C 66.194 7.830,71.244 3.083,72.342 2.495 C 72.938 2.177,73.885 0.000,73.428 0.000 C 73.284 0.000,73.167 0.132,73.167 0.293 M37.985 28.085 C 37.672 28.316,37.079 28.764,36.667 29.082 C 36.254 29.400,35.523 29.894,35.042 30.180 C 34.560 30.465,34.167 30.764,34.167 30.845 C 34.167 30.926,33.943 31.107,33.669 31.249 C 33.396 31.390,32.917 31.748,32.606 32.045 C 32.295 32.341,31.863 32.749,31.645 32.952 C 31.428 33.154,31.117 33.454,30.955 33.618 C 30.493 34.084,29.840 34.726,29.548 35.000 C 29.402 35.137,29.163 35.382,29.016 35.544 C 28.573 36.035,27.157 37.552,26.646 38.083 C 26.382 38.358,26.166 38.663,26.167 38.760 C 26.167 38.858,25.935 39.158,25.651 39.427 C 25.368 39.696,24.957 40.268,24.738 40.697 C 24.519 41.125,24.262 41.525,24.167 41.583 C 24.072 41.642,23.816 42.041,23.598 42.470 C 23.381 42.899,23.048 43.390,22.858 43.561 C 22.669 43.732,22.390 44.257,22.239 44.728 C 22.087 45.198,21.779 45.857,21.553 46.192 C 21.328 46.528,21.029 47.240,20.889 47.776 C 20.749 48.312,20.458 49.170,20.243 49.684 C 19.267 52.003,19.265 58.310,20.239 60.651 C 20.452 61.164,20.747 62.003,20.894 62.515 C 21.041 63.028,21.302 63.628,21.475 63.849 C 21.647 64.069,21.986 64.641,22.227 65.119 C 22.469 65.597,22.806 66.063,22.977 66.154 C 23.148 66.246,23.378 66.538,23.488 66.805 C 23.598 67.071,23.878 67.390,24.109 67.513 C 24.339 67.637,24.636 67.947,24.768 68.202 C 24.901 68.458,25.082 68.667,25.171 68.667 C 25.260 68.667,25.642 68.967,26.020 69.333 C 26.398 69.700,26.796 70.000,26.906 70.000 C 27.015 70.000,27.320 70.225,27.583 70.500 C 28.116 71.056,28.561 71.118,29.422 70.759 C 30.084 70.482,30.063 70.600,30.007 67.417 C 29.972 65.433,30.570 58.995,30.835 58.510 C 31.071 58.076,31.182 60.607,31.217 67.208 C 31.235 70.760,31.306 73.666,31.375 73.666 C 31.522 73.667,31.535 73.078,31.508 67.667 C 31.480 61.943,31.232 55.832,31.020 55.620 C 30.793 55.393,30.760 55.495,30.332 57.750 C 29.655 61.320,29.488 63.132,29.523 66.532 C 29.558 69.972,29.530 70.127,28.794 70.521 C 27.957 70.969,23.306 66.765,22.365 64.712 C 22.207 64.366,21.880 63.746,21.638 63.333 C 21.396 62.921,21.035 62.021,20.836 61.333 C 20.637 60.646,20.352 59.671,20.202 59.167 C 19.818 57.875,19.816 52.295,20.199 51.083 C 20.344 50.625,20.665 49.575,20.912 48.750 C 21.160 47.925,21.505 47.017,21.680 46.732 C 21.855 46.447,22.114 45.884,22.256 45.482 C 22.490 44.820,23.094 43.784,24.119 42.288 C 24.321 41.992,24.669 41.412,24.892 41.000 C 25.115 40.587,25.463 40.100,25.666 39.917 C 25.868 39.734,26.148 39.359,26.287 39.084 C 26.426 38.809,26.762 38.358,27.032 38.083 C 33.542 31.468,33.114 31.841,37.728 28.745 L 38.873 27.977 39.645 28.453 C 40.202 28.798,40.525 29.158,40.807 29.751 C 41.022 30.203,41.372 30.779,41.584 31.032 C 41.797 31.285,42.062 31.775,42.172 32.121 C 42.283 32.467,42.554 33.089,42.775 33.502 C 43.719 35.270,45.098 40.696,45.782 45.333 C 46.110 47.560,46.117 53.059,45.793 54.667 C 45.323 56.998,44.512 59.801,44.023 60.777 C 43.755 61.312,43.482 61.938,43.416 62.167 C 43.350 62.396,43.125 62.771,42.917 63.000 C 42.709 63.229,42.424 63.644,42.284 63.922 C 41.964 64.557,39.319 67.254,38.377 67.906 C 37.576 68.460,36.645 68.980,35.384 69.577 C 34.908 69.803,34.432 70.149,34.326 70.346 C 34.104 70.761,34.273 73.667,34.519 73.667 C 34.604 73.667,34.623 72.970,34.562 72.039 C 34.442 70.214,34.453 70.191,35.602 69.863 C 35.980 69.755,36.499 69.498,36.758 69.292 C 37.016 69.085,37.508 68.767,37.851 68.583 C 39.264 67.828,42.500 64.761,42.500 64.177 C 42.500 64.097,42.762 63.717,43.083 63.333 C 43.404 62.949,43.667 62.522,43.667 62.383 C 43.667 62.244,43.927 61.633,44.245 61.024 C 44.786 59.989,45.309 58.410,45.966 55.833 C 46.556 53.522,46.294 44.014,45.585 42.006 C 45.455 41.637,45.189 40.457,44.994 39.384 C 44.799 38.311,44.499 37.158,44.327 36.820 C 44.155 36.483,43.889 35.692,43.735 35.062 C 43.582 34.432,43.249 33.579,42.995 33.167 C 42.741 32.754,42.481 32.167,42.418 31.863 C 42.354 31.558,42.083 31.060,41.817 30.757 C 41.550 30.453,41.213 29.915,41.067 29.561 C 40.383 27.900,39.082 27.278,37.985 28.085 M7.500 46.307 C 6.142 46.700,3.741 48.157,2.609 49.275 C 2.348 49.533,1.918 49.835,1.653 49.946 C 1.333 50.081,1.080 50.376,0.901 50.824 C 0.718 51.281,0.528 51.500,0.315 51.500 C 0.041 51.500,-0.000 51.630,-0.000 52.512 C -0.000 53.387,0.040 53.517,0.292 53.467 C 0.511 53.423,0.583 53.244,0.583 52.746 C 0.583 52.069,1.361 50.333,1.664 50.333 C 1.751 50.333,2.190 50.015,2.639 49.625 C 6.888 45.938,9.862 45.750,13.072 48.968 C 13.858 49.755,14.500 50.488,14.500 50.597 C 14.500 50.707,14.758 51.171,15.073 51.629 C 15.389 52.088,15.771 52.891,15.923 53.414 C 16.075 53.938,16.343 54.690,16.519 55.087 C 17.663 57.675,17.596 64.249,16.393 67.417 C 15.463 69.865,15.742 69.395,13.625 72.067 C 12.825 73.077,12.625 73.667,13.083 73.667 C 13.221 73.667,13.333 73.535,13.333 73.374 C 13.333 73.114,14.533 71.392,15.605 70.112 C 15.822 69.853,16.000 69.516,16.000 69.364 C 16.000 69.211,16.259 68.561,16.576 67.918 C 17.932 65.171,18.012 57.391,16.715 54.503 C 16.488 53.997,16.197 53.238,16.068 52.815 C 15.940 52.393,15.612 51.768,15.340 51.426 C 15.069 51.084,14.796 50.642,14.734 50.444 C 14.100 48.412,9.439 45.747,7.500 46.307 M3.047 64.535 C 2.952 64.653,2.749 64.997,2.596 65.299 C 2.443 65.601,2.088 65.987,1.809 66.157 C 1.529 66.327,1.154 66.707,0.975 67.001 C 0.796 67.295,0.504 67.574,0.325 67.621 C -0.056 67.720,-0.112 68.000,0.249 68.000 C 0.587 68.000,2.522 66.082,2.834 65.439 C 3.488 64.087,3.966 64.944,3.664 66.931 C 3.399 68.682,3.573 70.114,4.263 71.854 C 4.577 72.645,4.833 73.376,4.833 73.479 C 4.833 73.582,4.908 73.667,5.000 73.667 C 5.335 73.667,5.153 72.778,4.570 71.567 C 3.877 70.127,3.710 68.744,3.968 66.583 C 4.174 64.851,3.678 63.746,3.047 64.535 " stroke="none" fill="#e67274" fill-rule="evenodd"></path><path id="path3" d="M73.833 0.253 C 73.833 0.695,72.806 2.344,72.353 2.627 C 70.609 3.720,64.968 9.225,62.623 12.124 C 62.235 12.604,61.692 13.270,61.417 13.603 C 61.142 13.936,60.767 14.449,60.583 14.744 C 60.400 15.038,60.038 15.535,59.780 15.848 C 59.264 16.472,58.661 17.320,58.209 18.060 C 58.048 18.322,57.748 18.772,57.542 19.060 C 57.336 19.348,56.967 19.996,56.722 20.500 C 56.477 21.004,56.105 21.679,55.895 22.000 C 55.685 22.321,55.399 22.907,55.260 23.303 C 55.121 23.698,54.860 24.208,54.681 24.437 C 54.501 24.665,54.189 25.349,53.987 25.957 C 53.784 26.565,53.484 27.292,53.319 27.573 C 53.154 27.854,52.856 28.683,52.657 29.417 C 52.457 30.150,52.194 30.946,52.071 31.185 C 51.156 32.973,50.260 38.864,50.261 43.083 L 50.262 46.917 50.975 49.750 C 51.367 51.308,51.822 52.814,51.987 53.095 C 52.152 53.376,52.409 53.976,52.560 54.428 C 52.710 54.880,53.095 55.619,53.416 56.071 C 53.737 56.523,54.000 56.991,54.000 57.112 C 54.000 57.233,54.246 57.614,54.548 57.958 C 54.849 58.302,55.299 58.883,55.549 59.250 C 55.798 59.617,56.222 60.203,56.491 60.553 C 57.439 61.785,61.110 64.885,62.748 65.835 C 63.145 66.066,63.607 66.378,63.776 66.530 C 64.352 67.048,66.595 67.970,66.885 67.808 C 67.530 67.447,67.364 57.542,66.699 56.708 C 66.498 56.456,66.101 55.800,65.815 55.250 C 65.530 54.700,65.165 54.100,65.003 53.917 C 64.841 53.733,64.615 53.185,64.502 52.699 C 64.388 52.212,64.105 51.587,63.872 51.310 C 63.507 50.877,63.426 50.561,63.291 49.030 C 63.204 48.052,63.028 47.050,62.900 46.801 C 62.772 46.553,62.673 46.065,62.682 45.717 L 62.697 45.083 62.851 45.617 C 62.945 45.942,63.183 46.236,63.457 46.368 C 63.925 46.592,64.129 47.202,64.411 49.215 C 64.484 49.736,64.684 50.200,64.987 50.549 C 65.243 50.843,65.541 51.356,65.649 51.688 C 65.956 52.630,66.426 52.986,66.818 52.573 C 67.085 52.291,67.148 51.748,67.309 48.333 C 67.452 45.327,67.613 43.758,68.002 41.583 C 68.281 40.025,68.585 37.972,68.677 37.021 C 68.859 35.139,69.038 34.615,69.470 34.705 C 69.688 34.750,69.740 34.918,69.705 35.467 C 69.624 36.733,69.998 37.167,71.171 37.167 C 72.283 37.167,72.496 37.443,71.756 37.928 C 71.531 38.076,71.298 38.359,71.240 38.557 C 71.181 38.755,70.868 39.166,70.544 39.471 L 69.955 40.024 70.048 46.804 C 70.103 50.838,70.246 54.731,70.401 56.417 C 70.544 57.975,70.775 60.975,70.915 63.083 C 71.225 67.753,71.461 70.190,71.694 71.117 C 71.790 71.503,71.837 72.234,71.798 72.742 C 71.731 73.618,71.748 73.667,72.114 73.667 C 72.655 73.667,72.642 72.077,72.079 69.315 C 71.626 67.097,71.438 64.734,71.169 57.917 C 71.075 55.533,70.892 52.458,70.762 51.083 C 70.632 49.708,70.473 46.770,70.407 44.553 L 70.289 40.522 72.103 38.671 C 73.100 37.653,73.982 36.617,74.062 36.368 C 74.143 36.120,74.403 35.708,74.641 35.452 C 75.216 34.835,74.983 34.408,74.088 34.437 C 73.316 34.462,72.696 34.911,72.196 35.806 C 71.568 36.930,70.675 36.706,70.998 35.506 C 71.306 34.362,70.863 30.833,70.411 30.833 C 70.119 30.833,68.943 32.556,68.703 33.333 C 68.458 34.128,68.352 34.905,68.168 37.250 C 68.064 38.570,67.867 39.692,67.588 40.550 C 67.093 42.073,66.838 44.948,66.832 49.083 C 66.830 50.550,66.763 51.853,66.683 51.980 C 66.493 52.279,66.167 52.072,66.167 51.651 C 66.167 51.174,65.733 50.210,65.270 49.660 C 64.960 49.292,64.844 48.906,64.760 47.967 C 64.602 46.191,64.352 45.189,63.833 44.250 C 63.581 43.792,63.248 43.029,63.094 42.554 C 62.422 40.479,61.967 41.173,61.866 44.426 C 61.794 46.757,61.796 46.776,62.313 47.954 C 62.599 48.606,62.835 49.389,62.837 49.695 C 62.844 50.600,63.108 51.481,63.576 52.155 C 63.817 52.504,64.093 53.080,64.188 53.436 C 64.283 53.792,64.574 54.353,64.834 54.682 C 65.094 55.012,65.429 55.574,65.579 55.932 C 65.729 56.290,66.026 56.771,66.240 57.000 C 66.662 57.451,67.069 66.418,66.694 66.976 C 66.484 67.288,64.850 66.815,64.404 66.313 C 64.228 66.114,63.687 65.775,63.203 65.559 C 62.719 65.343,62.278 65.051,62.224 64.909 C 62.170 64.768,61.854 64.508,61.521 64.331 C 60.213 63.636,56.193 59.628,55.494 58.323 C 55.377 58.103,55.107 57.786,54.894 57.619 C 54.682 57.452,54.430 57.025,54.334 56.670 C 54.238 56.314,53.910 55.724,53.603 55.357 C 53.256 54.941,53.004 54.422,52.932 53.978 C 52.870 53.585,52.591 52.867,52.313 52.380 C 51.908 51.673,51.744 51.071,51.493 49.373 C 51.321 48.205,51.066 46.725,50.926 46.083 C 50.576 44.471,50.604 42.064,51.002 39.740 C 51.186 38.662,51.448 36.778,51.584 35.554 C 51.775 33.830,51.927 33.137,52.259 32.482 C 52.495 32.017,52.793 31.036,52.922 30.302 C 53.082 29.395,53.311 28.735,53.639 28.240 C 53.904 27.839,54.210 27.058,54.319 26.504 C 54.428 25.950,54.654 25.366,54.821 25.207 C 55.216 24.829,55.667 23.936,55.667 23.531 C 55.667 23.356,55.892 22.929,56.167 22.583 C 56.443 22.236,56.779 21.577,56.916 21.118 C 57.052 20.659,57.321 20.174,57.513 20.039 C 57.705 19.905,57.997 19.480,58.161 19.096 C 58.326 18.711,58.692 18.144,58.974 17.835 C 59.256 17.526,59.533 17.061,59.590 16.802 C 59.647 16.543,59.839 16.253,60.016 16.158 C 60.193 16.063,60.535 15.674,60.776 15.292 C 61.017 14.911,61.348 14.483,61.512 14.341 C 61.676 14.199,62.004 13.783,62.240 13.417 C 62.771 12.595,63.390 11.844,64.208 11.031 C 64.552 10.689,64.833 10.330,64.833 10.233 C 64.833 10.135,65.128 9.819,65.488 9.529 C 65.848 9.240,66.186 8.871,66.238 8.710 C 66.290 8.549,66.558 8.289,66.833 8.133 C 67.108 7.977,67.418 7.663,67.522 7.436 C 67.625 7.208,67.915 6.937,68.167 6.833 C 68.418 6.729,68.707 6.460,68.810 6.235 C 68.912 6.011,69.180 5.756,69.406 5.671 C 69.631 5.585,69.943 5.320,70.099 5.082 C 70.255 4.844,70.611 4.532,70.890 4.387 C 71.169 4.243,71.514 3.984,71.657 3.810 C 71.800 3.637,72.291 3.252,72.748 2.955 C 73.917 2.195,74.908 0.000,74.083 0.000 C 73.946 0.000,73.833 0.114,73.833 0.253 M37.917 28.777 C 37.367 29.100,36.729 29.535,36.500 29.743 C 36.271 29.952,35.727 30.327,35.292 30.577 C 34.856 30.827,34.500 31.083,34.500 31.147 C 34.500 31.210,34.256 31.401,33.958 31.572 C 33.328 31.935,33.173 32.078,30.083 35.182 C 27.374 37.902,26.767 38.565,26.355 39.250 C 26.189 39.525,25.924 39.857,25.765 39.989 C 25.606 40.120,25.321 40.533,25.132 40.906 C 24.943 41.278,24.574 41.830,24.311 42.131 C 24.048 42.432,23.833 42.777,23.833 42.897 C 23.833 43.018,23.597 43.443,23.308 43.842 C 23.018 44.242,22.611 45.005,22.401 45.539 C 22.192 46.074,21.873 46.752,21.693 47.047 C 21.374 47.571,20.697 49.834,20.213 52.000 C 19.325 55.973,20.869 62.928,23.311 65.960 C 24.413 67.329,26.463 69.226,27.585 69.914 C 29.156 70.879,29.333 70.504,29.333 66.206 C 29.333 62.267,29.505 60.456,30.182 57.271 C 31.210 52.431,31.409 53.633,31.593 65.792 C 31.681 71.652,31.762 73.667,31.908 73.667 C 32.118 73.667,32.097 66.672,31.860 57.542 C 31.745 53.110,31.733 52.992,31.361 52.625 C 30.899 52.169,30.614 52.430,30.322 53.578 C 30.228 53.948,29.927 55.007,29.652 55.933 C 28.986 58.173,28.840 59.771,28.836 64.863 C 28.833 69.801,28.804 69.914,27.698 69.349 C 27.360 69.177,26.935 68.871,26.753 68.671 C 26.572 68.470,26.185 68.206,25.894 68.085 C 25.603 67.963,25.318 67.714,25.260 67.530 C 25.201 67.347,24.970 67.076,24.746 66.929 C 24.521 66.782,24.187 66.367,24.003 66.007 C 23.819 65.646,23.557 65.288,23.420 65.212 C 23.282 65.135,22.982 64.592,22.752 64.006 C 22.522 63.419,22.189 62.784,22.011 62.595 C 21.642 62.202,21.517 61.714,20.905 58.290 C 20.400 55.466,20.414 54.263,20.982 51.500 C 21.180 50.538,21.420 49.356,21.516 48.875 C 21.612 48.394,21.788 47.902,21.907 47.783 C 22.267 47.424,22.621 46.623,22.741 45.895 C 22.814 45.456,23.031 45.040,23.340 44.744 C 23.606 44.488,23.947 43.911,24.096 43.461 C 24.246 43.011,24.476 42.601,24.608 42.551 C 24.741 42.500,25.031 42.098,25.255 41.658 C 25.478 41.217,25.744 40.805,25.846 40.742 C 25.949 40.679,26.250 40.280,26.515 39.855 C 27.021 39.045,27.612 38.330,28.792 37.101 C 29.181 36.695,29.500 36.300,29.501 36.223 C 29.502 36.146,29.727 35.956,30.001 35.799 C 30.276 35.643,30.583 35.333,30.685 35.109 C 30.787 34.886,31.050 34.621,31.271 34.521 C 31.491 34.420,31.755 34.155,31.857 33.930 C 31.960 33.706,32.261 33.432,32.527 33.322 C 32.793 33.212,33.177 32.915,33.381 32.663 C 33.584 32.411,33.975 32.088,34.250 31.946 C 34.525 31.803,34.975 31.485,35.250 31.239 C 35.525 30.993,35.987 30.690,36.276 30.567 C 36.566 30.443,36.952 30.152,37.135 29.919 C 38.164 28.610,39.977 28.945,40.490 30.539 C 40.600 30.881,40.908 31.367,41.175 31.618 C 41.514 31.938,41.715 32.350,41.846 32.996 C 41.949 33.502,42.250 34.246,42.514 34.649 C 42.778 35.052,43.039 35.652,43.093 35.982 C 43.241 36.874,43.759 38.818,44.063 39.624 C 44.210 40.012,44.413 41.250,44.513 42.374 C 44.614 43.497,44.805 45.017,44.938 45.750 C 45.627 49.546,45.648 51.603,45.026 54.167 C 44.837 54.946,44.597 56.258,44.492 57.083 C 44.370 58.048,44.163 58.836,43.913 59.291 C 43.699 59.681,43.407 60.400,43.265 60.889 C 43.123 61.379,42.784 62.059,42.512 62.401 C 42.241 62.743,41.937 63.269,41.838 63.569 C 41.739 63.869,41.472 64.214,41.246 64.336 C 41.019 64.457,40.833 64.620,40.833 64.697 C 40.833 64.937,38.924 66.778,38.385 67.056 C 38.104 67.202,37.832 67.428,37.782 67.560 C 37.732 67.691,37.315 67.923,36.856 68.076 C 36.396 68.228,35.743 68.574,35.404 68.843 C 35.065 69.113,34.691 69.333,34.573 69.333 C 34.088 69.333,33.667 70.185,33.667 71.166 C 33.667 72.672,33.845 73.667,34.116 73.667 C 34.307 73.667,34.327 73.512,34.219 72.875 C 33.858 70.762,34.097 70.056,35.392 69.422 C 36.733 68.764,37.610 68.270,38.377 67.739 C 39.311 67.093,41.801 64.550,42.120 63.917 C 42.258 63.642,42.545 63.229,42.757 63.000 C 42.970 62.771,43.310 62.133,43.514 61.583 C 43.718 61.033,43.984 60.431,44.105 60.244 C 45.684 57.808,46.419 48.698,45.408 44.083 C 45.268 43.442,45.009 42.054,44.832 41.000 C 44.656 39.946,44.333 38.558,44.114 37.917 C 43.896 37.275,43.621 36.337,43.503 35.833 C 43.384 35.329,43.110 34.562,42.893 34.129 C 42.676 33.695,42.346 32.933,42.159 32.435 C 41.973 31.937,41.603 31.255,41.336 30.920 C 41.070 30.585,40.769 30.059,40.667 29.752 C 40.566 29.445,40.299 29.075,40.075 28.930 C 38.829 28.126,39.004 28.138,37.917 28.777 M73.407 35.985 C 73.549 36.214,73.328 36.667,73.075 36.667 C 72.776 36.667,72.643 36.421,72.767 36.098 C 72.878 35.810,73.257 35.742,73.407 35.985 M6.851 47.163 C 6.265 47.341,5.488 47.696,5.124 47.952 C 4.760 48.208,4.218 48.567,3.919 48.750 C 3.621 48.933,3.031 49.402,2.609 49.792 C 2.186 50.181,1.771 50.500,1.685 50.500 C 1.378 50.500,0.667 52.221,0.667 52.965 C 0.667 53.558,0.603 53.715,0.333 53.785 C -0.118 53.903,-0.110 54.500,0.342 54.500 C 0.773 54.500,1.167 53.616,1.167 52.646 C 1.167 51.861,3.184 49.686,4.583 48.964 C 4.950 48.775,5.407 48.452,5.599 48.246 C 6.550 47.227,10.511 47.356,11.667 48.444 C 13.670 50.330,13.963 50.675,14.251 51.498 C 14.395 51.909,14.699 52.439,14.926 52.677 C 15.214 52.977,15.394 53.433,15.519 54.179 C 15.617 54.768,15.929 55.962,16.211 56.833 C 16.945 59.099,16.983 63.197,16.290 65.167 C 16.047 65.854,15.725 66.979,15.574 67.667 C 15.373 68.579,15.168 69.054,14.816 69.425 C 14.550 69.704,14.333 70.019,14.333 70.125 C 14.333 70.231,14.015 70.650,13.625 71.056 C 11.940 72.812,11.489 73.667,12.250 73.667 C 12.545 73.667,12.667 73.576,12.667 73.356 C 12.667 73.185,12.930 72.716,13.251 72.314 C 15.550 69.440,15.795 68.984,16.783 65.750 C 17.420 63.663,17.187 56.823,16.428 55.355 C 16.299 55.106,16.071 54.418,15.921 53.826 C 15.771 53.234,15.398 52.375,15.092 51.917 C 14.786 51.458,14.489 50.927,14.432 50.736 C 14.375 50.545,13.724 49.785,12.985 49.046 C 10.993 47.053,9.112 46.476,6.851 47.163 M2.794 63.811 C 2.573 64.074,2.301 64.505,2.189 64.770 C 2.078 65.034,1.749 65.362,1.458 65.500 C 1.091 65.673,0.887 65.916,0.793 66.292 C 0.697 66.674,0.560 66.833,0.329 66.833 C 0.111 66.833,0.000 66.946,0.000 67.167 C 0.000 67.717,0.468 67.544,0.921 66.827 C 1.154 66.457,1.527 66.085,1.748 66.001 C 1.970 65.917,2.276 65.601,2.429 65.299 C 2.963 64.245,3.315 64.002,3.833 64.330 C 4.040 64.461,4.083 64.999,4.083 67.453 L 4.083 70.417 4.708 71.556 C 5.052 72.182,5.333 72.913,5.333 73.181 C 5.333 73.519,5.416 73.667,5.605 73.667 C 6.156 73.667,5.760 72.149,4.714 70.250 C 4.334 69.560,4.344 66.394,4.730 65.354 C 5.410 63.519,3.992 62.388,2.794 63.811 " stroke="none" fill="#ef9a9d" fill-rule="evenodd"></path><path id="path4" d="M1.500 0.314 C 1.500 0.770,1.319 0.764,10.833 0.646 C 15.646 0.586,23.202 0.529,27.625 0.519 C 34.654 0.502,35.667 0.469,35.667 0.250 C 35.667 0.029,33.657 0.000,18.583 0.000 C 1.964 0.000,1.500 0.009,1.500 0.314 M73.344 0.931 C 73.121 1.473,72.708 2.140,72.427 2.412 C 72.006 2.821,71.989 2.861,72.333 2.642 C 72.832 2.325,73.877 0.600,73.803 0.217 C 73.774 0.068,73.567 0.389,73.344 0.931 M71.000 3.531 C 70.587 3.907,70.400 4.135,70.583 4.038 C 70.897 3.872,71.980 2.825,71.823 2.840 C 71.783 2.844,71.412 3.155,71.000 3.531 M69.582 4.691 C 69.308 4.980,68.049 6.236,66.785 7.483 C 63.637 10.587,63.079 11.183,63.770 10.703 C 64.055 10.505,64.415 10.151,64.568 9.917 C 64.900 9.410,68.359 5.960,69.113 5.384 C 69.554 5.047,70.287 4.167,70.127 4.167 C 70.101 4.167,69.856 4.403,69.582 4.691 M62.594 11.964 C 62.006 12.668,61.995 12.698,62.483 12.250 C 62.946 11.826,63.453 11.154,63.298 11.172 C 63.271 11.175,62.955 11.531,62.594 11.964 M61.392 13.387 C 61.131 13.692,60.654 14.304,60.333 14.748 C 59.226 16.281,59.222 16.288,59.732 15.833 C 59.988 15.604,60.303 15.216,60.430 14.971 C 60.558 14.726,60.963 14.178,61.331 13.753 C 61.699 13.328,62.000 12.947,62.000 12.907 C 62.000 12.739,61.842 12.864,61.392 13.387 M58.612 17.210 C 58.353 17.507,57.957 18.087,57.731 18.500 C 57.505 18.912,57.136 19.505,56.910 19.816 C 56.685 20.128,56.503 20.465,56.507 20.566 C 56.510 20.667,56.632 20.525,56.777 20.250 C 56.922 19.975,57.173 19.600,57.335 19.417 C 57.497 19.233,57.782 18.778,57.969 18.406 C 58.156 18.033,58.431 17.626,58.580 17.503 C 58.827 17.298,59.245 16.664,59.131 16.668 C 59.105 16.669,58.871 16.913,58.612 17.210 M55.964 21.573 C 55.716 21.959,55.463 22.419,55.403 22.596 C 55.343 22.772,55.573 22.481,55.915 21.949 C 56.257 21.417,56.510 20.957,56.477 20.926 C 56.444 20.896,56.213 21.187,55.964 21.573 M54.542 24.380 C 54.255 24.858,53.975 25.475,53.920 25.750 C 53.852 26.089,53.921 26.004,54.132 25.489 C 54.304 25.071,54.620 24.490,54.835 24.200 C 55.050 23.909,55.190 23.634,55.146 23.590 C 55.101 23.546,54.830 23.901,54.542 24.380 M53.179 27.499 C 52.882 28.142,52.677 28.762,52.723 28.876 C 52.780 29.015,52.811 29.001,52.820 28.831 C 52.827 28.692,53.065 28.104,53.347 27.525 C 53.630 26.946,53.829 26.440,53.789 26.401 C 53.750 26.361,53.475 26.855,53.179 27.499 M37.820 28.638 C 37.308 28.975,36.596 29.506,36.237 29.819 C 35.559 30.409,35.881 30.236,36.856 29.486 C 37.164 29.249,37.761 28.859,38.182 28.619 L 38.947 28.183 39.599 28.613 C 39.957 28.850,40.352 29.165,40.477 29.313 C 40.662 29.533,40.692 29.537,40.634 29.333 C 40.566 29.093,39.075 27.986,38.856 28.013 C 38.798 28.020,38.331 28.302,37.820 28.638 M52.435 29.585 C 52.369 29.859,52.137 30.533,51.921 31.083 C 51.704 31.633,51.483 32.383,51.429 32.750 C 51.350 33.286,51.394 33.220,51.653 32.417 C 51.831 31.867,52.135 30.977,52.329 30.441 C 52.524 29.904,52.654 29.379,52.620 29.275 C 52.585 29.171,52.502 29.310,52.435 29.585 M40.670 29.750 C 40.669 29.842,40.836 30.171,41.042 30.482 C 41.248 30.792,41.584 31.317,41.789 31.648 C 41.994 31.979,42.162 32.175,42.163 32.083 C 42.164 31.992,41.997 31.662,41.791 31.352 C 41.585 31.041,41.249 30.516,41.044 30.185 C 40.840 29.854,40.671 29.658,40.670 29.750 M34.816 30.745 C 34.505 30.972,33.965 31.350,33.617 31.586 C 33.269 31.821,32.943 32.120,32.894 32.249 C 32.844 32.379,32.560 32.629,32.262 32.804 C 31.964 32.980,31.545 33.377,31.331 33.687 C 30.970 34.211,30.995 34.200,31.680 33.536 C 33.113 32.148,33.363 31.929,33.839 31.639 C 34.104 31.478,34.461 31.212,34.633 31.048 C 34.805 30.884,35.089 30.661,35.265 30.551 C 35.440 30.442,35.538 30.349,35.483 30.343 C 35.428 30.338,35.128 30.519,34.816 30.745 M42.343 32.917 C 42.346 33.008,42.573 33.496,42.846 34.000 C 43.119 34.504,43.297 34.745,43.242 34.535 C 43.124 34.092,42.335 32.670,42.343 32.917 M29.833 35.121 C 29.227 35.744,29.103 35.926,29.468 35.660 C 29.920 35.329,30.977 34.150,30.800 34.173 C 30.773 34.177,30.337 34.604,29.833 35.121 M50.703 36.281 C 50.494 37.272,50.331 38.233,50.340 38.417 C 50.350 38.600,50.542 37.887,50.766 36.833 C 50.991 35.779,51.154 34.818,51.129 34.697 C 51.104 34.577,50.912 35.289,50.703 36.281 M69.011 34.979 C 68.913 35.162,68.842 35.485,68.853 35.697 C 68.867 35.980,68.892 36.005,68.948 35.792 C 69.077 35.298,69.285 35.466,69.474 36.215 C 69.743 37.282,70.336 37.773,71.082 37.544 C 71.727 37.346,71.852 37.471,71.333 37.795 C 71.147 37.911,71.000 38.183,71.000 38.413 C 71.000 38.659,70.767 39.055,70.417 39.406 L 69.833 39.989 69.870 45.119 L 69.907 50.250 69.995 45.037 L 70.083 39.823 70.606 39.414 C 70.894 39.189,71.174 38.826,71.229 38.606 C 71.284 38.387,71.518 38.084,71.748 37.933 C 72.496 37.443,72.287 37.167,71.171 37.167 C 69.998 37.167,69.624 36.733,69.705 35.467 C 69.756 34.672,69.334 34.376,69.011 34.979 M72.767 36.098 C 72.643 36.421,72.776 36.667,73.075 36.667 C 73.328 36.667,73.549 36.214,73.407 35.985 C 73.257 35.742,72.878 35.810,72.767 36.098 M28.207 36.875 C 26.843 38.236,26.539 38.587,26.287 39.084 C 26.148 39.359,25.868 39.734,25.666 39.917 C 25.464 40.100,25.147 40.550,24.963 40.917 C 24.780 41.283,24.469 41.770,24.273 41.999 L 23.917 42.414 24.309 42.082 C 24.525 41.899,24.854 41.450,25.040 41.083 C 25.225 40.717,25.630 40.135,25.939 39.791 C 26.247 39.447,26.500 39.103,26.500 39.026 C 26.500 38.883,27.367 37.897,28.464 36.794 C 28.805 36.452,29.046 36.170,29.000 36.169 C 28.954 36.168,28.597 36.485,28.207 36.875 M68.717 37.000 C 68.717 37.504,68.748 37.710,68.786 37.458 C 68.824 37.206,68.824 36.794,68.786 36.542 C 68.748 36.290,68.717 36.496,68.717 37.000 M43.677 36.417 C 43.673 36.508,43.898 37.258,44.176 38.083 C 44.454 38.908,44.637 39.302,44.583 38.959 C 44.485 38.336,43.688 36.100,43.677 36.417 M50.217 39.667 C 50.217 40.171,50.248 40.377,50.286 40.125 C 50.324 39.873,50.324 39.460,50.286 39.208 C 50.248 38.956,50.217 39.162,50.217 39.667 M67.867 42.368 C 67.659 43.586,67.458 45.371,67.421 46.333 L 67.352 48.083 67.503 46.417 C 67.586 45.500,67.815 43.799,68.011 42.637 C 68.208 41.474,68.341 40.440,68.307 40.338 C 68.273 40.236,68.075 41.149,67.867 42.368 M50.064 43.250 C 50.064 44.350,50.091 44.778,50.124 44.202 C 50.156 43.625,50.156 42.725,50.123 42.202 C 50.090 41.678,50.063 42.150,50.064 43.250 M45.013 42.000 C 45.007 42.229,45.087 42.717,45.190 43.083 C 45.294 43.450,45.480 44.350,45.602 45.083 L 45.826 46.417 45.736 45.250 C 45.642 44.022,45.033 41.284,45.013 42.000 M23.132 43.812 C 22.793 44.328,22.398 45.079,22.256 45.482 C 22.114 45.884,21.849 46.456,21.666 46.751 C 21.483 47.047,21.334 47.355,21.334 47.436 C 21.337 47.737,22.013 46.552,22.345 45.667 C 22.534 45.163,22.959 44.356,23.289 43.875 C 23.619 43.394,23.858 42.972,23.819 42.937 C 23.781 42.902,23.472 43.296,23.132 43.812 M62.682 45.717 C 62.673 46.065,62.772 46.553,62.900 46.801 C 63.028 47.050,63.205 48.061,63.292 49.048 C 63.425 50.541,63.514 50.910,63.821 51.237 C 64.025 51.454,64.297 51.958,64.426 52.357 L 64.661 53.083 64.556 52.252 C 64.478 51.636,64.327 51.306,63.975 50.977 C 63.521 50.552,63.500 50.468,63.500 49.026 C 63.500 46.712,63.934 46.980,64.257 49.494 C 64.345 50.174,64.488 50.512,64.824 50.827 C 65.071 51.060,65.366 51.400,65.478 51.583 C 65.667 51.891,65.674 51.885,65.569 51.500 C 65.506 51.271,65.245 50.843,64.989 50.549 C 64.684 50.199,64.484 49.738,64.411 49.215 C 64.129 47.202,63.925 46.592,63.457 46.368 C 63.183 46.236,62.945 45.942,62.851 45.617 L 62.697 45.083 62.682 45.717 M50.214 46.417 C 50.216 46.875,50.248 47.043,50.286 46.789 C 50.325 46.536,50.324 46.161,50.284 45.956 C 50.244 45.751,50.213 45.958,50.214 46.417 M45.887 47.500 C 45.887 48.096,45.917 48.340,45.954 48.042 C 45.991 47.744,45.991 47.256,45.954 46.958 C 45.917 46.660,45.887 46.904,45.887 47.500 M6.956 46.942 C 5.864 47.320,6.080 47.416,7.255 47.075 C 8.875 46.604,10.967 47.133,12.284 48.347 C 12.674 48.706,13.042 49.000,13.103 49.000 C 13.164 49.000,12.856 48.681,12.420 48.292 C 10.906 46.941,8.602 46.372,6.956 46.942 M5.423 47.533 C 5.082 47.731,3.645 48.800,3.500 48.964 C 3.396 49.082,4.193 48.588,5.257 47.875 C 6.017 47.366,6.137 47.119,5.423 47.533 M50.341 47.676 C 50.337 47.910,50.516 48.698,50.739 49.426 C 51.264 51.140,51.273 50.688,50.752 48.750 C 50.531 47.925,50.346 47.442,50.341 47.676 M20.530 50.049 C 19.955 51.905,19.831 52.866,19.862 55.231 L 19.891 57.417 19.996 54.750 C 20.084 52.511,20.175 51.834,20.566 50.530 C 20.822 49.675,21.003 48.947,20.967 48.912 C 20.932 48.876,20.735 49.388,20.530 50.049 M2.668 49.582 C 2.358 49.902,1.968 50.207,1.802 50.260 C 1.636 50.313,1.415 50.520,1.312 50.720 C 1.132 51.067,1.138 51.071,1.437 50.804 C 2.702 49.676,3.403 49.007,3.324 49.004 C 3.274 49.002,2.978 49.262,2.668 49.582 M13.759 49.844 C 14.121 50.262,14.450 50.578,14.492 50.547 C 14.533 50.515,14.237 50.172,13.834 49.786 L 13.102 49.083 13.759 49.844 M46.058 50.500 C 46.058 51.279,46.087 51.598,46.122 51.208 C 46.157 50.819,46.157 50.181,46.122 49.792 C 46.087 49.402,46.058 49.721,46.058 50.500 M67.167 50.724 C 67.167 52.685,66.786 53.282,66.068 52.447 C 65.847 52.191,65.667 52.061,65.667 52.157 C 65.667 52.381,66.279 53.000,66.500 53.000 C 67.087 53.000,67.333 52.336,67.333 50.750 C 67.333 49.879,67.296 49.167,67.250 49.167 C 67.204 49.167,67.167 49.868,67.167 50.724 M14.500 50.940 C 14.500 51.019,14.762 51.454,15.083 51.905 C 15.404 52.356,15.667 52.673,15.667 52.609 C 15.667 52.544,15.404 52.110,15.083 51.644 C 14.762 51.178,14.500 50.861,14.500 50.940 M51.260 51.417 C 51.360 52.112,52.326 54.396,52.463 54.259 C 52.506 54.216,52.369 53.859,52.160 53.466 C 51.950 53.072,51.640 52.300,51.471 51.750 C 51.232 50.972,51.185 50.898,51.260 51.417 M70.033 52.279 C 70.015 53.028,70.117 55.053,70.261 56.779 C 70.667 61.675,70.785 62.805,70.810 62.060 C 70.823 61.681,70.685 59.581,70.503 57.394 C 70.322 55.206,70.149 52.854,70.120 52.167 L 70.066 50.917 70.033 52.279 M0.611 51.944 C 0.550 52.006,0.505 52.212,0.511 52.403 C 0.520 52.722,0.534 52.718,0.681 52.351 C 0.844 51.943,0.810 51.745,0.611 51.944 M45.881 53.083 C 45.882 53.542,45.915 53.709,45.953 53.456 C 45.991 53.203,45.990 52.828,45.951 52.623 C 45.911 52.418,45.880 52.625,45.881 53.083 M64.677 53.355 C 64.671 53.504,64.785 53.724,64.930 53.845 C 65.075 53.965,65.421 54.518,65.698 55.073 C 65.976 55.629,66.353 56.247,66.537 56.447 C 66.721 56.648,66.930 57.060,67.002 57.364 C 67.121 57.870,67.134 57.879,67.150 57.471 C 67.159 57.226,66.990 56.814,66.772 56.554 C 66.555 56.295,66.144 55.620,65.859 55.054 C 65.574 54.488,65.259 53.974,65.159 53.912 C 65.059 53.850,64.912 53.638,64.832 53.441 C 64.730 53.188,64.685 53.162,64.677 53.355 M0.292 53.460 C 0.131 53.495,0.000 53.594,0.000 53.679 C -0.000 53.892,0.455 53.874,0.590 53.656 C 0.731 53.428,0.655 53.379,0.292 53.460 M16.007 54.130 C 16.003 54.248,16.122 54.623,16.272 54.964 C 16.421 55.304,16.646 55.958,16.772 56.417 L 17.000 57.250 16.912 56.525 C 16.827 55.827,16.021 53.693,16.007 54.130 M45.665 54.375 C 45.663 54.581,45.476 55.424,45.248 56.249 C 44.719 58.162,44.722 58.679,45.252 56.917 C 45.678 55.500,45.945 54.000,45.771 54.000 C 45.714 54.000,45.666 54.169,45.665 54.375 M30.763 54.777 C 29.964 56.858,29.333 61.901,29.333 66.206 C 29.333 70.428,29.148 70.864,27.728 69.986 C 26.956 69.509,27.020 69.686,27.820 70.241 C 28.335 70.598,28.540 70.657,28.792 70.522 C 29.530 70.127,29.559 69.970,29.519 66.607 C 29.478 63.223,29.676 61.140,30.383 57.500 C 30.780 55.457,31.014 55.122,31.196 56.333 C 31.283 56.911,31.297 56.822,31.256 55.943 C 31.201 54.768,30.973 54.229,30.763 54.777 M52.667 55.103 C 52.667 55.184,52.967 55.691,53.334 56.231 C 53.700 56.770,54.000 57.145,54.000 57.064 C 53.999 56.983,53.699 56.475,53.333 55.936 C 52.966 55.396,52.667 55.021,52.667 55.103 M17.039 57.833 C 17.039 58.154,17.073 58.285,17.115 58.125 C 17.157 57.965,17.157 57.702,17.115 57.542 C 17.073 57.381,17.039 57.512,17.039 57.833 M31.400 59.667 C 31.400 60.996,31.425 61.540,31.457 60.875 C 31.489 60.210,31.489 59.123,31.457 58.458 C 31.425 57.794,31.400 58.337,31.400 59.667 M20.080 58.250 C 20.118 58.708,20.334 59.646,20.561 60.333 C 21.066 61.865,21.136 61.642,20.647 60.059 C 20.453 59.431,20.230 58.579,20.153 58.167 L 20.011 57.417 20.080 58.250 M54.733 58.417 C 55.735 59.770,56.562 60.846,56.892 61.227 C 57.061 61.423,56.930 61.208,56.600 60.750 C 56.270 60.292,55.746 59.542,55.436 59.083 C 55.127 58.625,54.703 58.100,54.495 57.917 C 54.273 57.722,54.372 57.929,54.733 58.417 M44.600 58.884 C 44.544 59.187,44.349 59.726,44.168 60.081 C 43.987 60.437,43.874 60.763,43.917 60.806 C 43.961 60.849,44.147 60.543,44.332 60.124 C 44.683 59.332,44.938 58.333,44.789 58.333 C 44.742 58.333,44.657 58.581,44.600 58.884 M67.235 61.083 C 67.235 62.642,67.260 63.302,67.291 62.550 C 67.321 61.798,67.321 60.523,67.291 59.717 C 67.260 58.910,67.235 59.525,67.235 61.083 M17.234 61.167 C 17.234 62.587,17.259 63.169,17.291 62.458 C 17.322 61.748,17.322 60.585,17.291 59.875 C 17.259 59.165,17.234 59.746,17.234 61.167 M57.833 62.090 C 58.154 62.450,58.515 62.809,58.635 62.887 C 58.755 62.964,59.214 63.340,59.654 63.722 C 60.617 64.557,62.231 65.739,62.084 65.501 C 62.026 65.407,61.440 64.929,60.781 64.439 C 60.122 63.948,59.058 63.072,58.417 62.491 C 57.722 61.862,57.486 61.700,57.833 62.090 M21.092 62.083 C 21.190 62.586,21.936 64.000,22.104 64.000 C 22.153 64.000,22.037 63.746,21.844 63.435 C 21.652 63.124,21.382 62.580,21.245 62.226 C 21.043 61.707,21.014 61.680,21.092 62.083 M42.815 62.901 C 42.576 63.185,42.265 63.642,42.124 63.917 C 41.583 64.973,38.275 68.046,37.261 68.435 C 36.772 68.623,35.083 69.667,35.269 69.667 C 35.360 69.667,35.768 69.456,36.176 69.199 C 36.583 68.941,37.065 68.675,37.245 68.606 C 38.276 68.216,41.746 64.990,42.284 63.922 C 42.424 63.644,42.730 63.211,42.965 62.960 C 43.200 62.709,43.360 62.477,43.321 62.444 C 43.282 62.412,43.054 62.617,42.815 62.901 M70.887 64.167 C 70.887 64.762,70.917 65.006,70.954 64.708 C 70.991 64.410,70.991 63.923,70.954 63.625 C 70.917 63.327,70.887 63.571,70.887 64.167 M17.039 64.500 C 17.039 64.821,17.073 64.952,17.115 64.792 C 17.157 64.631,17.157 64.369,17.115 64.208 C 17.073 64.048,17.039 64.179,17.039 64.500 M2.963 64.458 C 2.822 64.619,2.582 64.997,2.429 65.299 C 2.276 65.601,1.965 65.918,1.738 66.005 C 1.511 66.091,1.166 66.432,0.971 66.762 C 0.776 67.092,0.459 67.431,0.267 67.514 C -0.053 67.653,-0.055 67.663,0.244 67.624 C 0.424 67.600,0.744 67.325,0.955 67.012 C 1.166 66.699,1.553 66.313,1.815 66.153 C 2.077 65.994,2.471 65.538,2.691 65.140 C 3.150 64.308,3.626 64.192,3.951 64.833 C 4.095 65.119,4.163 65.162,4.164 64.970 C 4.170 64.297,3.394 63.967,2.963 64.458 M22.178 64.250 C 22.178 64.342,22.286 64.604,22.417 64.833 C 22.548 65.063,22.655 65.175,22.655 65.083 C 22.655 64.992,22.548 64.729,22.417 64.500 C 22.286 64.271,22.178 64.158,22.178 64.250 M67.333 65.972 C 67.230 67.899,67.006 68.180,65.985 67.659 C 65.081 67.198,64.952 67.258,65.779 67.754 C 67.097 68.544,67.550 68.006,67.466 65.749 L 67.417 64.417 67.333 65.972 M16.856 65.454 C 16.844 65.658,16.608 66.391,16.333 67.083 C 16.058 67.776,15.836 68.434,15.840 68.546 C 15.844 68.658,16.110 68.085,16.433 67.272 C 16.755 66.460,16.987 65.635,16.948 65.439 C 16.880 65.090,16.878 65.090,16.856 65.454 M23.082 65.834 C 23.872 66.757,23.883 66.768,23.702 66.417 C 23.608 66.233,23.317 65.896,23.057 65.667 L 22.583 65.251 23.082 65.834 M31.562 67.000 C 31.562 67.962,31.589 68.356,31.623 67.875 C 31.657 67.394,31.657 66.606,31.623 66.125 C 31.589 65.644,31.562 66.037,31.562 67.000 M4.042 66.083 C 4.044 66.450,4.078 66.580,4.118 66.373 C 4.158 66.166,4.156 65.866,4.115 65.706 C 4.073 65.547,4.040 65.717,4.042 66.083 M62.341 65.723 C 62.568 65.968,64.753 67.333,64.909 67.327 C 65.005 67.323,64.858 67.201,64.583 67.056 C 64.308 66.911,63.933 66.661,63.750 66.499 C 63.436 66.223,62.146 65.511,62.341 65.723 M71.052 66.583 C 71.053 67.133,71.084 67.338,71.121 67.039 C 71.158 66.739,71.157 66.289,71.119 66.039 C 71.081 65.788,71.051 66.033,71.052 66.583 M24.189 67.199 C 24.430 67.410,24.830 67.808,25.078 68.083 L 25.528 68.583 25.087 67.971 C 24.845 67.634,24.444 67.236,24.198 67.086 L 23.750 66.815 24.189 67.199 M3.890 68.417 C 3.891 69.150,3.920 69.429,3.956 69.037 C 3.991 68.645,3.990 68.045,3.954 67.704 C 3.919 67.363,3.890 67.683,3.890 68.417 M71.217 68.500 C 71.217 69.004,71.248 69.210,71.286 68.958 C 71.324 68.706,71.324 68.294,71.286 68.042 C 71.248 67.790,71.217 67.996,71.217 68.500 M26.000 68.896 C 26.229 69.144,26.567 69.431,26.750 69.534 C 27.017 69.683,27.000 69.631,26.667 69.270 C 26.438 69.022,26.100 68.736,25.917 68.633 C 25.650 68.483,25.667 68.536,26.000 68.896 M14.698 70.458 C 14.224 71.077,13.573 71.912,13.251 72.314 C 12.930 72.716,12.675 73.204,12.686 73.398 C 12.704 73.734,12.709 73.735,12.786 73.417 C 12.830 73.233,13.178 72.677,13.558 72.180 C 15.824 69.221,15.743 69.333,15.613 69.333 C 15.584 69.333,15.172 69.840,14.698 70.458 M31.555 70.417 C 31.555 71.058,31.586 71.300,31.622 70.955 C 31.658 70.609,31.657 70.084,31.620 69.788 C 31.583 69.492,31.554 69.775,31.555 70.417 M71.457 70.417 C 71.517 70.967,71.548 71.930,71.525 72.557 C 71.498 73.293,71.543 73.660,71.652 73.592 C 71.850 73.470,71.762 71.282,71.514 70.167 C 71.359 69.469,71.355 69.487,71.457 70.417 M34.416 70.001 C 33.990 70.472,34.171 70.516,34.619 70.050 C 34.822 69.839,34.927 69.667,34.853 69.667 C 34.779 69.667,34.582 69.817,34.416 70.001 M4.170 70.693 C 4.168 70.753,4.367 71.188,4.611 71.659 C 4.855 72.129,5.115 72.792,5.189 73.132 L 5.322 73.750 5.261 73.046 C 5.212 72.488,4.185 70.270,4.170 70.693 M31.552 72.750 C 31.553 73.300,31.584 73.505,31.621 73.205 C 31.658 72.906,31.657 72.456,31.619 72.205 C 31.581 71.955,31.551 72.200,31.552 72.750 " stroke="none" fill="#ec7c7c" fill-rule="evenodd"></path></g></svg>